<?xml version="1.0" standalone="no"?> 
<!DOCTYPE svg PUBLIC "-//W3C//DTD SVG 1.1//EN" "http://www.w3.org/Graphics/SVG/1.1/DTD/svg11.dtd" >
<svg xmlns="http://www.w3.org/2000/svg">
<defs>
  <font id="app-icons" horiz-adv-x="560">
    <font-face font-family="app-icons"
      units-per-em="560" ascent="560"
      descent="0" />
    <missing-glyph horiz-adv-x="0" />
    <glyph glyph-name="2credit-cards"
      unicode="&#xE001;"
      horiz-adv-x="560" d=" M130.769231 189.774235L130.769231 136.447704C130.769231 125.289541 139.796154 116.304847 151.011538 116.304847L495.134615 116.304847C506.35 116.304847 515.384615 125.289541 515.384615 136.443878L515.384615 337.841837C515.384615 348.996173 506.35 357.980867 495.134615 357.980867L441.538462 357.980867L441.538462 209.913265C441.538462 198.758929 432.503846 189.774235 421.288462 189.774235L130.769231 189.774235zM64.8576923 443.695153C53.6423077 443.695153 44.6153846 434.710459 44.6153846 423.556122L44.6153846 222.16199C44.6153846 211.003827 53.6423077 202.019133 64.8576923 202.019133L408.980769 202.019133C420.196154 202.019133 429.230769 211.003827 429.230769 222.158163L429.230769 423.556122C429.230769 434.710459 420.196154 443.695153 408.980769 443.695153L64.8576923 443.695153L64.8576923 443.695153zM70.7346154 403.4170920000001L403.042308 403.4170920000001L403.042308 363.139031L70.7346154 363.139031L70.7346154 403.4170920000001L70.7346154 403.4170920000001zM70.7346154 280.968112L144.580769 280.968112L144.580769 240.690051L70.7346154 240.690051L70.7346154 280.968112L70.7346154 280.968112z" />
    <glyph glyph-name="add"
      unicode="&#xE002;"
      horiz-adv-x="560" d=" M323.636364 323.636364L323.636364 520L236.363636 520L236.363636 323.636364L40 323.636364L40 236.363636L236.363636 236.363636L236.363636 40L323.636364 40L323.636364 236.363636L520 236.363636L520 323.636364L323.636364 323.636364z" />
    <glyph glyph-name="billing"
      unicode="&#xE003;"
      horiz-adv-x="560" d=" M43.4285714 438.285714L90.2857143 438.285714L90.2857143 122.285714L43.4285714 122.285714L43.4285714 438.285714L43.4285714 438.285714zM226.285714 121.714286L273.142857 121.714286L273.142857 438.285714L226.285714 438.285714L226.285714 121.714286L226.285714 121.714286zM165.142857 121.714286L212 121.714286L212 438.285714L165.142857 438.285714L165.142857 121.714286L165.142857 121.714286zM114.857143 121.714286L140.571429 121.714286L140.571429 438.285714L114.857143 438.285714L114.857143 121.714286L114.857143 121.714286zM286.857143 121.714286L333.714286 121.714286L333.714286 438.285714L286.857143 438.285714L286.857143 121.714286L286.857143 121.714286zM469.714286 438.285714L469.714286 122.285714L516.571429 122.285714L516.571429 438.285714L469.714286 438.285714L469.714286 438.285714zM358.285714 121.714286L384.571429 121.714286L384.571429 438.285714L358.285714 438.285714L358.285714 121.714286L358.285714 121.714286zM425.714286 121.714286L438.857143 121.714286L438.857143 438.285714L425.714286 438.285714L425.714286 121.714286L425.714286 121.714286z" />
    <glyph glyph-name="broken-desktop"
      unicode="&#xE004;"
      horiz-adv-x="560" d=" M536.422857 173.177143L501.862857 173.177143L501.862857 427.44C501.862857 446.571429 486.434286 462 467.302857 462L92.6971429 462C73.5657143 462 58.1371429 446.571429 58.1371429 427.44L58.1371429 173.177143L23.5771429 173.177143C16.1714286 173.177143 10 167.005714 10 159.6L10 145.405714C10 119.485714 30.9828571 98.502857 56.9028571 98.502857L502.48 98.502857C528.4 98.502857 550 119.485714 550 145.405714L550 159.6C550 167.005714 543.828571 173.177143 536.422857 173.177143zM85.9085714 427.44C85.9085714 431.142857 88.9942857 434.228571 92.6971429 434.228571L466.685714 434.228571C470.388571 434.228571 473.474286 431.142857 473.474286 427.44L473.474286 173.177143L346.96 173.177143C339.554286 173.177143 334 167.622857 333.382857 160.834286L226.617143 160.834286C226 167.622857 219.828571 173.177143 213.04 173.177143L85.9085714 173.177143L85.9085714 427.44zM522.845714 144.788571C522.845714 133.68 513.588571 125.04 503.097143 125.04L56.9028571 125.04C45.7942857 125.04 37.1542857 133.68 37.1542857 144.788571L37.1542857 145.405714L201.314286 145.405714C205.017143 138 212.422857 133.062857 221.68 133.062857L338.32 133.062857C346.96 133.062857 354.982857 138 358.685714 145.405714L522.845714 144.788571zM459.897143 212.057143L459.897143 392.88C459.897143 406.457143 448.788571 416.948571 435.828571 416.948571L126.022857 416.948571C112.445714 416.948571 101.954286 405.8400000000001 101.954286 392.88L101.954286 212.057143C101.954286 198.48 113.062857 187.988571 126.022857 187.988571L435.828571 187.988571C448.788571 187.988571 459.897143 199.097143 459.897143 212.057143zM126.022857 403.3714290000001L195.76 403.3714290000001L195.76 400.9028570000001L198.228571 392.262857L184.651429 392.88C182.182857 392.88 179.714286 391.645714 178.48 389.794286C177.245714 387.942857 177.245714 385.474286 177.862857 383.005714L182.182857 373.748571L177.862857 373.748571C174.777143 373.748571 171.691429 371.8971430000001 170.457143 368.811429L164.285714 345.36L151.325714 366.342857C149.474286 369.4285710000001 145.154286 370.6628570000001 142.068571 368.811429L129.725714 362.022857L116.148571 383.622857C116.148571 384.24 115.531429 384.24 115.531429 384.857143L115.531429 393.497143C115.531429 398.434286 119.851429 403.3714290000001 126.022857 403.3714290000001zM115.531429 212.057143L115.531429 360.171429L122.937143 349.68C124.788571 346.594286 129.108571 345.977143 132.194286 347.828571L143.92 354.617143L161.817143 325.611429C161.817143 324.994286 162.434286 324.994286 162.434286 324.994286L169.222857 310.8L156.262857 304.628571C154.411429 303.394286 152.56 301.5428570000001 152.56 299.6914290000001L148.24 273.771429C147.005714 268.834286 149.474286 265.1314290000001 153.177143 264.5142860000001L154.411429 264.5142860000001C157.497143 264.5142860000001 160.582857 266.982857 161.2 270.068571L164.902857 292.902857L180.948571 300.308571C182.8 300.9257140000001 184.034286 302.1600000000001 184.651429 304.011429C185.268571 305.862857 185.268571 307.714286 184.651429 308.948571L175.394286 329.3142860000001L183.417143 359.554286L194.525714 358.937143C196.994286 358.937143 199.462857 360.171429 200.697143 362.022857C201.931429 363.874286 202.548571 366.342857 201.314286 368.811429L196.377143 378.685714L206.251429 378.068571L235.257143 364.4914290000001L222.914286 353.382857C221.062857 351.531429 220.445714 349.062857 221.062857 346.594286C221.68 344.125714 223.531429 342.274286 226 341.657143L265.497143 330.5485710000001L265.497143 304.011429C265.497143 300.308571 268.582857 297.222857 272.285714 297.222857C275.988571 297.222857 279.074286 300.308571 279.074286 304.011429L279.074286 326.845714L313.017143 317.588571L314.868571 317.588571C317.954286 317.588571 320.422857 319.44 321.657143 322.525714C322.891429 326.228571 320.422857 329.931429 316.7200000000001 331.165714L276.605714 341.657143C275.371429 342.891429 273.52 344.125714 271.668571 344.125714L269.817143 344.125714L240.811429 351.531429L251.302857 361.405714C253.154286 362.64 253.771429 365.108571 253.771429 367.577143C253.154286 370.045714 251.92 371.8971430000001 250.068571 372.514286L213.657143 389.794286L209.954286 403.3714290000001L435.828571 403.3714290000001C441.382857 403.3714290000001 446.32 398.434286 446.32 392.88L446.32 212.057143C446.32 206.502857 441.382857 201.565714 435.828571 201.565714L126.022857 201.565714C119.851429 201.565714 115.531429 206.502857 115.531429 212.057143z" />
    <glyph glyph-name="broken-mobile"
      unicode="&#xE005;"
      horiz-adv-x="560" d=" M369.505102 530L189.658163 530C160.959184 530 138 506.4030612 138 478.3418367L138 81.658163C138 52.959184 161.596939 30 189.658163 30L369.505102 30C398.2040820000001 30 421.163265 53.596939 421.163265 81.658163L421.163265 477.7040816C421.80102 506.4030612 398.2040820000001 530 369.505102 530zM254.709184 449.642857L251.520408 437.52551C250.882653 435.6122450000001 251.520408 433.061224 252.795918 431.147959C254.071429 429.234694 256.622449 428.596939 258.535714 428.596939L281.494898 429.872449L273.841837 413.9285710000001L245.142857 413.290816C243.229592 413.290816 241.316327 412.015306 240.040816 410.739796C238.765306 408.826531 238.127551 406.913265 238.765306 405L243.867347 379.489796L207.515306 350.153061C206.239796 348.8775510000001 205.602041 347.602041 204.964286 345.688776L200.5 318.903061C199.862245 315.076531 202.413265 311.25 206.239796 310.6122450000001L207.515306 310.6122450000001C210.704082 310.6122450000001 213.892857 313.163265 214.530612 316.352041L218.357143 340.586735L250.244898 366.734694L273.2040820000001 339.3112240000001C274.4795920000001 337.397959 276.392857 336.760204 278.943878 336.760204C280.219388 336.760204 282.132653 337.397959 283.408163 338.673469C286.596939 341.22449 286.596939 345.688776 284.045918 348.8775510000001L257.897959 380.1275510000001L254.071429 399.897959L278.943878 400.535714L298.714286 401.8112240000001L312.744898 348.239796L312.744898 347.602041L332.515306 303.596939L284.045918 250.663265C282.770408 249.3877550000001 282.132653 246.836735 282.132653 244.923469C282.132653 243.010204 283.408163 241.096939 285.321429 239.821429L328.05102 211.760204C329.326531 211.122449 330.602041 210.484694 331.877551 210.484694C334.428571 210.484694 336.341837 211.760204 337.617347 213.673469C339.530612 216.862245 338.892857 221.326531 335.7040820000001 223.239796L299.989796 246.836735L345.908163 297.219388C347.821429 299.132653 348.459184 302.321429 347.183673 304.872449L327.413265 349.515306L354.19898 394.158163L375.244898 382.6785710000001C378.433673 380.765306 382.260204 382.040816 384.811224 384.591837L393.102041 397.346939L393.102041 137.780612L166.061224 137.780612L166.061224 449.642857L254.709184 449.642857zM393.102041 421.581633L376.520408 397.346939L355.47449 408.826531C352.285714 410.739796 347.821429 409.464286 345.908163 406.27551L322.311224 367.372449L310.831633 410.739796C310.193878 413.9285710000001 307.005102 416.4795920000001 303.816327 415.841837L290.423469 414.566327L299.989796 434.336735C301.265306 436.887755 300.627551 439.438776 299.352041 441.352041C298.076531 443.265306 295.52551 444.540816 292.97449 444.540816L267.464286 443.265306L269.377551 449.642857L393.739796 449.642857L393.102041 421.581633zM189.658163 501.3010204L369.505102 501.3010204C382.260204 501.3010204 393.102041 490.4591837 393.102041 477.7040816L166.061224 477.7040816C166.061224 491.0969388 176.903061 501.3010204 189.658163 501.3010204zM369.505102 57.423469L189.658163 57.423469C176.265306 57.423469 166.061224 68.265306 166.061224 81.020408L166.061224 108.443878L393.739796 108.443878L393.739796 81.020408C393.102041 68.265306 382.897959 57.423469 369.505102 57.423469zM279.581633 105.255102C268.102041 105.255102 258.535714 95.688776 258.535714 84.209184C258.535714 72.729592 268.102041 63.163265 279.581633 63.163265C291.061224 63.163265 300.627551 72.729592 300.627551 84.209184C300.627551 95.688776 291.69898 105.255102 279.581633 105.255102zM279.581633 76.556122C275.755102 76.556122 272.566327 79.744898 272.566327 83.571429C272.566327 87.397959 275.755102 90.586735 279.581633 90.586735C283.408163 90.586735 286.596939 87.397959 286.596939 83.571429C286.596939 79.744898 284.045918 76.556122 279.581633 76.556122z" />
    <glyph glyph-name="broken-tablet"
      unicode="&#xE006;"
      horiz-adv-x="560" d=" M426.813725 530L132.083333 530C103.284314 530 80 506.7156863 80 477.9166667L80 82.083333C80 53.284314 103.284314 30 132.083333 30L427.426471 30C456.22549 30 479.509804 53.284314 479.509804 82.083333L479.509804 477.9166667C478.897059 506.7156863 455.612745 530 426.813725 530zM450.710784 450.343137L450.710784 195.441176L443.970588 188.088235L437.230392 207.083333L441.519608 241.397059C441.519608 243.8480390000001 440.906863 245.686275 439.681373 247.52451L416.397059 270.196078C413.333333 272.647059 409.0441180000001 272.647059 406.593137 270.196078C404.142157 267.132353 404.142157 262.843137 406.593137 260.392157L427.426471 240.171569L423.75 209.534314L412.107843 196.053922L371.053922 220.563725L364.926471 224.240196L364.313725 224.240196L331.838235 242.622549L353.284314 287.352941C354.509804 289.803922 353.897059 292.254902 352.671569 294.093137C351.446078 295.931373 348.995098 297.156863 346.5441180000001 297.156863L323.259804 297.156863L300.588235 357.205882C299.362745 360.882353 295.073529 362.720588 291.397059 361.495098C287.720588 360.269608 285.882353 355.980392 287.107843 352.303922L311.617647 287.352941C312.843137 284.901961 315.2941180000001 283.063725 318.357843 283.063725L335.514706 283.063725L315.906863 242.622549C314.068627 239.558824 315.2941180000001 235.269608 318.970588 233.431373L355.122549 212.598039L367.377451 161.740196L347.156863 156.22549L296.29902 167.254902L305.4901960000001 186.25C306.715686 188.70098 306.102941 191.151961 304.877451 192.990196C303.651961 194.828431 301.20098 196.053922 298.75 196.053922L269.95098 196.053922C266.27451 196.053922 263.210784 192.990196 263.210784 189.313725C263.210784 185.637255 266.27451 182.573529 269.95098 182.573529L287.720588 182.573529L279.754902 165.416667C279.142157 163.578431 279.142157 161.127451 279.754902 159.289216C280.980392 157.45098 282.205882 156.22549 284.656863 155.612745L341.642157 143.357843L348.382353 137.230392L108.186275 137.230392L108.186275 449.730392L450.710784 449.730392L450.710784 450.343137zM369.215686 137.843137L360.02451 146.421569L377.181373 151.323529C380.857843 152.54902 382.696078 156.22549 382.083333 159.901961L371.053922 204.632353L409.656863 181.960784C412.720588 180.122549 416.397059 180.735294 418.235294 183.186275L427.426471 193.602941L434.779412 172.769608C435.392157 170.318627 437.843137 168.480392 440.2941180000001 168.480392C442.745098 167.867647 445.196078 169.093137 447.034314 170.931373L450.710784 175.220588L450.710784 138.455882L369.215686 138.455882L369.215686 137.843137zM132.083333 501.8137255L427.426471 501.8137255C440.2941180000001 501.8137255 450.710784 491.3970588 451.323529 478.5294118L108.186275 478.5294118C108.186275 491.3970588 119.215686 501.8137255 132.083333 501.8137255zM426.813725 58.186275L132.083333 58.186275C119.215686 58.186275 108.186275 68.602941 108.186275 82.083333L108.186275 109.656863L450.710784 109.656863L450.710784 82.083333C450.710784 69.215686 440.2941180000001 58.186275 426.813725 58.186275zM279.142157 106.593137C267.5 106.593137 257.696078 96.789216 257.696078 85.147059C257.696078 73.504902 267.5 63.70098 279.142157 63.70098C290.784314 63.70098 300.588235 73.504902 300.588235 85.147059C300.588235 96.789216 290.784314 106.593137 279.142157 106.593137zM279.142157 77.794118C274.852941 77.794118 271.789216 80.857843 271.789216 85.147059C271.789216 89.436275 274.852941 92.5 279.142157 92.5C283.431373 92.5 286.495098 89.436275 286.495098 85.147059C286.495098 80.857843 282.818627 77.794118 279.142157 77.794118z" />
    <glyph glyph-name="broken-wide-desktop"
      unicode="&#xE007;"
      horiz-adv-x="560" d=" M493.486455 529L66.5135453 529C46.4899882 529 30 512.5100118 30 492.4864547L30 181.532391C30 153.26384 52.9681979 130.295642 81.2367491 130.295642L229.646643 130.295642L220.812721 74.936396C219.634865 67.28033 214.334511 61.391048 207.267373 59.035336L189.010601 59.035336C181.943463 59.035336 176.054181 53.146054 176.054181 46.0789160000001C176.054181 39.011779 181.943463 33.122497 189.010601 33.122497L195.48881 33.122497L195.48881 31.9446410000001L200.789164 31.9446410000001C203.733804 31.9446410000001 206.678445 32.5335690000001 209.623086 33.122497L353.321555 33.122497C356.266196 32.5335690000001 359.210836 31.9446410000001 362.155477 31.9446410000001L367.45583 31.9446410000001L367.45583 33.122497L370.400471 33.122497C377.467609 33.122497 383.35689 39.011779 383.35689 46.0789160000001C383.35689 53.146054 377.467609 59.035336 370.400471 59.035336L356.266196 59.035336C349.199058 61.391048 343.898704 67.28033 342.720848 74.936396L333.886926 130.295642L478.763251 130.295642C507.031802 130.295642 530 153.26384 530 181.532391L530 492.4864547C530 512.5100118 513.510012 529 493.486455 529L493.486455 529zM66.5135453 503.0871614L493.486455 503.0871614C499.375736 503.0871614 504.087161 498.3757362 504.087161 492.4864547L504.087161 241.014134L55.9128386 241.014134L55.9128386 492.4864547C55.9128386 498.3757362 60.6242638 503.0871614 66.5135453 503.0871614zM307.974087 129.706714L319.163722 58.446408L244.958775 58.446408L256.14841 129.706714L307.974087 129.706714zM478.763251 156.208481L80.647821 156.208481C66.5135453 156.208481 55.3239105 167.398115 55.3239105 181.532391L55.3239105 215.101296L504.087161 215.101296L504.087161 181.532391C504.087161 167.398115 492.897527 156.208481 478.763251 156.208481zM280.883392 206.856302C269.693757 206.856302 260.270907 197.433451 260.270907 186.243816C260.270907 175.054181 269.693757 165.631331 280.883392 165.631331C292.073027 165.631331 301.495878 175.054181 301.495878 186.243816C301.495878 197.433451 292.073027 206.856302 280.883392 206.856302zM280.883392 178.58775C276.760895 178.58775 273.227326 182.121319 273.227326 186.243816C273.227326 190.366313 276.760895 193.899882 280.883392 193.899882C285.005889 193.899882 288.539458 190.366313 288.539458 186.243816C287.95053 182.121319 285.005889 178.58775 280.883392 178.58775zM80.647821 249.259128L478.174323 249.259128C486.419317 249.259128 492.897527 255.737338 492.897527 263.982332L492.897527 476.5853946C492.897527 484.8303887 486.419317 491.3085984 478.174323 491.3085984L80.647821 491.3085984C72.4028269 491.3085984 65.9246172 484.8303887 65.9246172 476.5853946L65.9246172 263.982332C65.9246172 255.737338 72.991755 249.259128 80.647821 249.259128zM317.396938 262.804476L302.673734 275.760895L314.452297 279.294464C317.985866 280.47232 319.75265 283.416961 319.163722 286.95053L311.507656 319.3415780000001L339.187279 302.85159C342.13192 301.084806 345.0765610000001 301.673734 347.432273 304.029446L353.321555 311.096584L358.621908 296.37338C359.210836 294.017668 360.977621 292.839812 363.333333 292.250883C365.689046 291.661955 368.044759 292.839812 369.222615 294.017668L376.289753 301.673734L376.289753 294.017668C376.289753 291.073027 378.645465 288.128386 381.590106 287.539458L400.435807 283.416961L385.123675 261.037691L317.396938 262.804476C317.396938 262.215548 317.396938 262.215548 317.396938 262.804476zM78.8810365 476.5853946C78.8810365 477.7632509 79.4699647 478.352179 80.647821 478.352179L478.174323 478.352179C479.352179 478.352179 479.941107 477.7632509 479.941107 476.5853946L479.941107 263.982332C479.941107 262.804476 479.352179 262.215548 478.174323 262.215548L400.435807 262.215548L416.336867 284.594817L434.004711 304.618375C436.360424 307.563015 436.360424 311.685512 433.415783 314.041225C430.471143 316.396938 426.348645 316.396938 423.992933 313.452297L408.091873 295.784452L388.657244 299.906949L388.657244 319.3415780000001C388.657244 322.286219 386.890459 324.641932 384.534747 325.23086C382.179034 326.4087160000001 379.234393 325.23086 377.467609 323.464075L366.277974 311.096584L361.566549 324.641932L365.100118 351.143698C365.100118 352.910483 364.51119 355.2661960000001 363.333333 356.444052L345.0765610000001 374.111896C342.720848 376.4676090000001 338.598351 376.4676090000001 335.65371 374.111896C333.297998 371.756184 333.297998 367.633687 335.65371 364.689046L351.55477 349.376914L349.199058 326.4087160000001L340.954064 316.985866L309.740872 335.242638L279.705536 352.910483L296.195524 387.657244C297.37338 389.424028 296.784452 391.779741 295.606596 394.135453C294.42874 395.902238 292.073027 397.0800940000001 290.306243 397.0800940000001L272.638398 397.0800940000001L255.559482 443.01649C254.381625 446.5500590000001 250.259128 448.316843 247.314488 446.5500590000001C243.780919 445.372203 242.014134 441.249706 243.780919 438.305065L262.62662 388.246172C263.804476 385.890459 266.160188 384.123675 268.515901 384.123675L280.294464 384.123675L265.57126 353.499411C264.393404 350.55477 264.982332 347.021201 267.926973 345.254417L296.195524 328.764429L305.618375 290.484099L290.895171 286.361602L253.203769 294.017668L259.681979 307.563015C260.859835 309.3298 260.270907 311.685512 259.093051 314.041225C257.915194 315.808009 255.559482 316.985866 253.792697 316.985866L231.413428 316.985866C227.879859 316.985866 224.935218 314.041225 224.935218 310.507656C224.935218 306.974087 227.879859 304.029446 231.413428 304.029446L243.191991 304.029446L237.891637 292.250883C237.302709 290.484099 237.302709 288.128386 237.891637 286.361602C239.069494 284.594817 240.24735 283.416961 242.603062 282.828033L287.361602 273.405183L299.729093 262.215548L80.647821 262.215548C79.4699647 262.215548 78.8810365 262.804476 78.8810365 263.982332L78.8810365 476.5853946z" />
    <glyph glyph-name="bullet"
      unicode="&#xE008;"
      horiz-adv-x="560" d=" M40 280C40 147.4516600406096 147.4516600406096 40 280 40C412.5483399593905 40 520 147.4516600406096 520 280C520 412.5483399593905 412.5483399593905 520 280 520C147.4516600406096 520 40 412.5483399593905 40 280z" />
    <glyph glyph-name="cart"
      unicode="&#xE009;"
      horiz-adv-x="560" d=" M499.764131 421.4285710000001L162.674884 436.342857L150.940765 480.5714286C148.273919 489.8285714 140.273384 496 130.139371 496L61.3347625 496C49.6006431 496 40 486.7428571 40 475.4285714C40 464.1142857 49.6006431 454.857143 61.3347625 454.857143L113.60493 454.857143L172.275527 234.742857L157.874563 177.142857C156.274455 170.971429 157.874563 164.285714 161.608146 159.657143C165.875098 154.514286 171.742158 151.942857 178.142587 151.942857L439.493427 151.942857C451.227546 151.942857 460.828189 161.2 460.828189 172.514286C460.828189 183.828571 451.227546 193.085714 439.493427 193.085714L205.877778 193.085714L211.744838 242.154622L425.092462 251.92605C433.092998 252.440336 440.026796 257.068908 443.22701 263.754622L517.898679 392.628571C521.098893 398.285714 520.565524 405.4857140000001 516.831941 411.657143C513.098357 417.3142860000001 506.697929 421.4285710000001 499.764131 421.4285710000001zM211.211469 283.297479L175.475742 394.685714L466.16188 381.828571L410.158129 292.040336L211.211469 283.297479zM186.666667 64C208.758057 64 226.666667 81.065852 226.666667 102.117647C226.666667 123.169442 208.758057 140.235294 186.666667 140.235294C164.575277 140.235294 146.666667 123.169442 146.666667 102.117647C146.666667 81.065852 164.575277 64 186.666667 64zM426.666667 64C448.758057 64 466.666667 81.065852 466.666667 102.117647C466.666667 123.169442 448.758057 140.235294 426.666667 140.235294C404.5752770000001 140.235294 386.666667 123.169442 386.666667 102.117647C386.666667 81.065852 404.5752770000001 64 426.666667 64z" />
    <glyph glyph-name="check"
      unicode="&#xE00A;"
      horiz-adv-x="560" d=" M159.1586 129.439357L49.7243179 271.92403C32.6996407 294.060934 38.606638 324.572508 62.9258703 340.114369C87.2858406 355.649687 120.779297 350.270764 137.836332 328.08403L209.873338 234.421464L427.44421 436.443561C448.057767 455.915297 482.10905 456.491435 503.519636 437.699063C524.93101 418.98308 525.531634 387.949255 505.013935 368.430244L241.983086 123.572716C230.780818 113.008288 215.10428 107.574749 199.063696 108.722535C197.339939 108.859088 195.61738 109.001824 193.886013 109.279875C179.899287 111.526091 167.433045 118.769366 159.1586 129.439357z" />
    <glyph glyph-name="chevron-down"
      unicode="&#xE00B;"
      horiz-adv-x="560" d=" M280 215.552145L99.4094198 409.211832C87.5655506 421.912827 67.6714584 422.603114 54.9699411 410.758758C42.2656312 398.911797 41.5714279 379.018323 53.413157 366.319624L254.399491 150.788168C261.230074 143.463264 270.738198 140.133178 280 140.89841C289.261802 140.133178 298.769926 143.463264 305.600509 150.788168L506.586843 366.319624C518.428572 379.018323 517.734369 398.911797 505.030059 410.758758C492.328542 422.603114 472.434449 421.912827 460.59058 409.211832L280 215.552145z" />
    <glyph glyph-name="chevron-left"
      unicode="&#xE00C;"
      horiz-adv-x="560" d=" M215.55125 280.000017L409.21125 460.5910172C421.91225 472.4350172 422.60425 492.3290172 410.75825 505.0300172C398.91225 517.7340172 379.01925 518.4280172 366.32025 506.5870172L150.78825 305.602017C143.46525 298.771017 140.13525 289.262017 140.89825 280.000017C140.13325 270.738017 143.46325 261.230017 150.78825 254.399017L366.31825 53.413017C379.01725 41.571017 398.91225 42.267017 410.75725 54.970017C422.6022500000001 67.672017 421.91125 87.567017 409.21025 99.409017L215.55125 280.000017L215.55125 280.000017z" />
    <glyph glyph-name="chevron-right"
      unicode="&#xE00D;"
      horiz-adv-x="560" d=" M344.448554 280.000196L150.788554 460.5911957C138.087554 472.4351957 137.396554 492.3291957 149.241554 505.0301957C161.088554 517.7341957 180.981554 518.4281957000001 193.680554 506.5871957L409.211554 305.601196C416.535554 298.770196 419.865554 289.262196 419.101554 280.000196C419.866554 270.738196 416.536554 261.230196 409.211554 254.399196L193.681554 53.413196C180.982554 41.571196 161.088554 42.266196 149.242554 54.970196C137.397554 67.672196 138.088554 87.566196 150.789554 99.409196L344.448554 280.000196L344.448554 280.000196z" />
    <glyph glyph-name="chevron-up"
      unicode="&#xE00E;"
      horiz-adv-x="560" d=" M280 344.447855L99.4094198 150.788168C87.5655506 138.087173 67.6714584 137.396886 54.9699411 149.241242C42.2656312 161.088203 41.5714279 180.981677 53.413157 193.680376L254.399491 409.211832C261.230074 416.536736 270.738198 419.866822 280 419.10159C289.261802 419.866822 298.769926 416.536736 305.600509 409.211832L506.586843 193.680376C518.428572 180.981677 517.734369 161.088203 505.030059 149.241242C492.328542 137.396886 472.434449 138.087173 460.59058 150.788168L280 344.447855L280 344.447855z" />
    <glyph glyph-name="circle-alert"
      unicode="&#xE00F;"
      horiz-adv-x="560" d=" M272 53.333333C397.184543 53.333333 498.666667 154.815457 498.666667 280C498.666667 405.184543 397.184543 506.6666667 272 506.6666667C146.815457 506.6666667 45.3333333 405.184543 45.3333333 280C45.3333333 154.815457 146.815457 53.333333 272 53.333333zM253.333313 351.910581C253.333313 363.74204 262.922258 373.3333330000001 274.756632 373.3333330000001C286.588405 373.3333330000001 296.179952 363.732363 296.179952 351.910581L296.179952 280.415346C296.179952 268.583886 286.591007 258.992594 274.756632 258.992594C262.92486 258.992594 253.333313 268.593564 253.333313 280.415346L253.333313 351.910581zM253.333328 212.907546C253.333328 224.60174 262.815804 234.081757 274.505598 234.081757L275.007696 234.081757C286.7008180000001 234.081757 296.179966 224.604311 296.179966 212.907546C296.179966 201.213352 286.69749 191.733335 275.007696 191.733335L274.505598 191.733335C262.812476 191.733335 253.333328 201.210781 253.333328 212.907546z" />
    <glyph glyph-name="circle-learn-more"
      unicode="&#xE010;"
      horiz-adv-x="560" d=" M279.664993 53.670013C404.848612 53.670013 506.329987 155.151388 506.329987 280.335007C506.329987 405.5186260000001 404.848612 507 279.664993 507C154.481374 507 53 405.5186260000001 53 280.335007C53 155.151388 154.481374 53.670013 279.664993 53.670013L279.664993 53.670013L279.664993 53.670013L279.664993 53.670013zM320.538733 280.335084L243.6353 352.048747C238.591664 356.752064 238.317264 364.652079 243.020978 369.695714C247.725485 374.740542 255.625103 375.016133 260.667945 370.314008L346.256471 290.50138C349.164871 287.788753 350.487232 284.013075 350.183843 280.335084C350.4876290000001 276.657094 349.1652680000001 272.881416 346.256471 270.168789L260.668342 190.356161C255.6255 185.653639 247.725485 185.929627 243.021375 190.974454C238.317661 196.018487 238.592061 203.918502 243.635697 208.621422L320.538733 280.335084L320.538733 280.335084L320.538733 280.335084L320.538733 280.335084z" />
    <glyph glyph-name="circle-questions"
      unicode="&#xE011;"
      horiz-adv-x="560" d=" M40 280C40 412.54834 147.45166 520 280 520C412.54834 520 520 412.54834 520 280C520 147.45166 412.54834 40 280 40C147.45166 40 40 147.45166 40 280zM280.5 64C399.517364 64 496 160.482636 496 279.5C496 398.517364 399.517364 495 280.5 495C161.482636 495 65 398.517364 65 279.5C65 160.482636 161.482636 64 280.5 64zM351.154791 345.033289C351.154791 342.050584 351.007372 339.0146630000001 350.712531 335.925433C350.417689 332.836203 349.582316 329.374187 348.206388 325.539281C346.83046 321.7043750000001 344.717459 317.39017 341.867322 312.596538C339.017185 307.802905 335.13516 302.210418 330.22113 295.818908L312.235872 272.809587C308.304649 267.696379 305.061438 263.328913 302.506143 259.707057C299.950847 256.085202 298.673219 251.717735 298.673219 246.604527L298.673219 234.460719C298.673219 232.7563160000001 298.083544 231.318248 296.904177 230.146471C295.72481 228.974695 294.348902 228.388815 292.776413 228.388815L268.304668 228.388815C264.570006 228.388815 262.702703 230.412763 262.702703 234.460719L262.702703 246.604527C262.702703 251.717735 262.9484 256.191725 263.439803 260.026631C263.931206 263.861537 264.8648580000001 267.5366 266.240786 271.051931C267.616714 274.567261 269.385739 278.082539 271.547912 281.59787C273.710085 285.1132 276.560179 289.1078340000001 280.09828 293.581891L298.968059 317.23036C302.50616 321.7044170000001 304.815719 326.178406 305.8968060000001 330.652463C306.977892 335.1265200000001 307.518428 339.920081 307.518428 345.033289L307.518428 350.146471C307.518428 353.981377 306.191659 356.910775 303.5380840000001 358.934754C300.884508 360.958732 296.511087 361.970706 290.41769 361.970706C283.144927 361.970706 275.577435 361.597873 267.714988 360.852197C259.852541 360.106521 252.678165 359.307594 246.191646 358.455393L245.012285 358.455393C241.670745 358.455393 240 360.798911 240 365.486019L240 385.299601C240 387.856205 240.245698 389.826891 240.737101 391.211718C241.228504 392.596545 242.75183 393.608519 245.307125 394.24767C251.597083 395.952072 258.771458 397.336879 266.830467 398.40213C274.889475 399.467382 282.751804 400 290.41769 400C299.852627 400 308.353771 399.201073 315.921376 397.6031960000001C323.488981 396.005318 329.877124 393.288967 335.0859950000001 389.454061C340.294866 385.619155 344.275171 380.506024 347.027027 374.114514C349.778884 367.723004 351.154791 359.733736 351.154791 350.146471L351.154791 345.033289zM299.85258 166.071904C299.85258 164.367501 299.262905 162.929433 298.083538 161.757656C296.904171 160.58588 295.528263 160 293.955774 160L267.420147 160C265.847658 160 264.47175 160.58588 263.292383 161.757656C262.113016 162.929433 261.523342 164.367501 261.523342 166.071904L261.523342 202.183755C261.523342 203.888158 262.113016 205.379488 263.292383 206.65779C264.47175 207.936092 265.847658 208.575233 267.420147 208.575233L293.955774 208.575233C295.528263 208.575233 296.904171 207.936092 298.083538 206.65779C299.262905 205.379488 299.85258 203.888158 299.85258 202.183755L299.85258 166.071904z" />
    <glyph glyph-name="circle-success"
      unicode="&#xE012;"
      horiz-adv-x="560" d=" M247.957102 230.579647L207.892514 292.273703C204.277723 297.839994 196.82641 299.42492 191.254327 295.8063660000001C185.681018 292.187018 184.097282 284.739352 187.714215 279.169763L237.192288 202.980212C240.807079 197.413921 248.258391 195.828995 253.830475 199.447549C255.787828 200.718669 257.253098 202.461982 258.173822 204.4303C258.701302 204.878073 259.198314 205.376197 259.658035 205.92407L371.149078 338.793922C375.545778 344.033704 374.865821 351.8643140000001 369.617213 356.268419C364.367451 360.673492 356.5447700000001 359.98939 352.142188 354.742597L247.957102 230.579647zM53.3333333 280.333333C53.3333333 405.517877 154.815457 507 280 507C405.184543 507 506.666667 405.517877 506.666667 280.333333C506.666667 155.14879 405.184543 53.666667 280 53.666667C154.815457 53.666667 53.3333333 155.14879 53.3333333 280.333333z" />
    <glyph glyph-name="credit-card"
      unicode="&#xE013;"
      horiz-adv-x="560" d=" M65.2624 438.967094C51.2656 438.967094 40 427.14738 40 412.4734170000001L40 147.531617C40 132.85262 51.2656 121.032906 65.2624 121.032906L494.728 121.032906C508.7248 121.032906 520 132.85262 520 147.526583L520 412.4734170000001C520 427.14738 508.7248 438.967094 494.728 438.967094L65.2624 438.967094L65.2624 438.967094zM72.5968 385.979741L487.3168 385.979741L487.3168 332.992387L72.5968 332.992387L72.5968 385.979741L72.5968 385.979741zM72.5968 224.893354L164.7568 224.893354L164.7568 171.906001L72.5968 171.906001L72.5968 224.893354L72.5968 224.893354z" />
    <glyph glyph-name="delivery-moving"
      unicode="&#xE014;"
      horiz-adv-x="560" d=" M77.8101702 382.446229C77.8101702 389.066927 83.1837216 394.4340630000001 89.7982203 394.4340630000001L118.59278 394.4340630000001L118.59278 370.458394L89.7982203 370.458394C83.1774031 370.458394 77.8101702 375.824075 77.8101702 382.446229L77.8101702 382.446229zM9 292.055559C9 299.027154 14.6404066 304.6787490000001 21.6300452 304.6787490000001L161.748985 304.6787490000001L161.748985 279.43237L21.6300452 279.43237C14.6546638 279.43237 9 285.082431 9 292.055559L9 292.055559zM36.5959881 339.527384C36.5959881 346.498979 42.2481255 352.150573 49.2282886 352.150573L118.59278 352.150573L118.59278 326.904195L49.2282886 326.904195C42.2516617 326.904195 36.5959881 332.554256 36.5959881 339.527384L36.5959881 339.527384zM455.748225 130.999002C478.094406 130.999002 496.209564 149.11416 496.209564 171.460341C496.209564 193.806522 478.094406 211.92168 455.748225 211.92168C433.402044 211.92168 415.286886 193.806522 415.286886 171.460341C415.286886 149.11416 433.402044 130.999002 455.748225 130.999002L455.748225 130.999002zM535.246749 322.655705C528.581513 335.986177 511.108045 346.784819 496.209564 346.784819L442.2643090000001 346.784819L442.2643090000001 237.5229C446.623085 238.4195900000001 451.140101 238.894308 455.748225 238.894308C492.924897 238.894308 523.177397 208.641809 523.177397 171.465136C538.071082 171.465136 550.150024 183.544078 550.150024 198.437764L550.150024 238.8991030000001L550.150024 292.844358L535.246749 322.655705L535.246749 322.655705zM118.592776 303.326521L118.592776 327.30219L231.267972 327.30219C237.898234 327.30219 243.266255 332.669326 243.266255 339.290024C243.266255 345.9121780000001 237.894441 351.2778590000001 231.267972 351.2778590000001L118.592776 351.2778590000001L118.592776 370.458394L284.0144440000001 370.458394C290.644706 370.458394 296.012727 375.825531 296.012727 382.446229C296.012727 389.0683830000001 290.640913 394.4340630000001 284.0144440000001 394.4340630000001L118.592776 394.4340630000001L118.592776 394.4340630000001L118.592776 400.725279C118.592776 415.62376 130.671718 428 145.565404 428L401.80297 428C416.70145 428 430.276474 415.62376 430.276474 400.725279L430.276474 387.241363L430.276474 346.7800230000001L430.276474 233.178508C406.3008050000001 222.744297 388.319053 197.833577 388.319053 169.062774L280.428543 169.062774C280.428543 207.423845 249.576652 237.690729 212.395184 237.695524C197.161044 237.695524 185.72465 233.624456 171.339248 225.065142L171.339248 226.60438L145.565404 226.60438C130.671718 226.60438 118.592776 237.484538 118.592776 252.373429L118.592776 279.350852L173.726366 279.350852C180.356628 279.350852 185.72465 284.717988 185.72465 291.338686C185.72465 297.96084 180.352835 303.326521 173.726366 303.326521L118.592776 303.326521L118.592776 303.326521zM530.979079 279.350852L469.236936 279.350852L469.236936 333.296107L496.209564 333.296107C503.665997 333.296107 512.393141 327.896787 515.725759 321.231551L530.979079 290.7297040000001L530.979079 279.350852L530.979079 279.350852zM212.999371 130.999002C235.345551 130.999002 253.46071 149.11416 253.46071 171.460341C253.46071 193.806522 235.345551 211.92168 212.999371 211.92168C190.65319 211.92168 172.538032 193.806522 172.538032 171.460341C172.538032 149.11416 190.65319 130.999002 212.999371 130.999002L212.999371 130.999002z" />
    <glyph glyph-name="delivery-pickup"
      unicode="&#xE015;"
      horiz-adv-x="560" d=" M211.326712 267.4679070000001C211.326712 275.895196 204.498699 282.727651 196.053642 282.727651L65.5395239 282.727651C57.1166787 282.727651 50.2353562 275.970716 50.1953745 267.547872L50.1953745 267.454581C50.1953745 259.067274 56.974521 252.181511 65.3795963 252.181511C97.9470427 252.181511 196.053642 252.177067 196.053642 252.177067C204.48093 252.194837 211.326712 259.027293 211.326712 267.4679070000001L211.326712 267.4679070000001zM211.326712 213.550148C211.326712 221.995205 204.498699 228.82766 196.053642 228.82766L85.903618 228.82766C77.463003 228.82766 70.595008 222.070728 70.5416988 213.647881L70.5416988 213.572361C70.5416988 205.185054 77.316403 198.299291 85.7214783 198.299291C127.209323 198.299291 196.053642 198.294846 196.053642 198.294846C204.48093 198.277078 211.326712 205.109533 211.326712 213.550148L211.326712 213.550148zM479.000824 471.357625L178.283928 471.357625C155.671963 471.357625 137.284752 452.965969 137.284752 430.358449L137.284752 338.018122L55.2730706 338.062546C46.8280132 338.062546 40 331.234532 40 322.811688C40 314.3844000000001 46.8280132 307.538616 55.2508586 307.538616L225.893438 307.427556C234.893798 306.712326 246.835048 309.68431 252.250368 320.497183C259.575935 335.07279 251.170859 353.588835 224.156448 382.335792C222.921451 383.646309 221.917463 384.810225 221.108941 385.814214C226.959621 386.067433 235.11592 385.098983 239.860433 382.984387C241.184279 382.393544 242.943479 381.67387 245.098058 380.794269C268.003221 371.4740530000001 337.709372 343.11803 337.709372 259.929106C337.709372 233.470001 330.370482 212.786049 315.888162 198.44589C292.689799 175.438551 257.607936 175.105367 257.265871 175.105367L122.251572 175.105367C113.810956 175.105367 106.982943 168.259586 106.982943 159.832297C106.982943 151.409453 113.810956 144.563669 122.251572 144.563669L137.284752 144.563669L137.284752 129.641551C137.284752 107.034031 155.671963 88.642375 178.283928 88.642375L479.000824 88.642375C501.608344 88.642375 520 107.034031 520 129.641551L520 430.358449C520 452.965969 501.608344 471.357625 479.000824 471.357625L479.000824 471.357625zM490.631102 129.641551C490.631102 123.337744 485.304631 118.015715 479.000824 118.015715L178.283928 118.015715C171.980121 118.015715 166.653647 123.337744 166.653647 129.641551L166.653647 144.563669L257.163696 144.563669C258.949551 144.541459 304.8975940000001 144.505917 337.41173 176.740182C357.878001 197.064294 368.28217 225.047154 368.28217 259.942435C368.28217 328.77787 330.708105 378.968431 256.621719 409.096984C254.8714 409.8211 253.432055 410.4075000000001 252.352543 410.873956C239.918185 416.431434 204.783015 422.3265370000001 191.637868 403.886015C185.818285 395.707503 182.877398 381.713852 201.89988 361.438607C212.366242 350.28811 217.923719 342.758193 220.864609 337.973696L166.653647 338.000351L166.653647 430.358449C166.653647 436.662255 171.980121 441.988727 178.283928 441.988727L479.000824 441.988727C485.304631 441.988727 490.631102 436.662255 490.631102 430.358449L490.631102 129.641551L490.631102 129.641551z" />
    <glyph glyph-name="delivery-regular"
      unicode="&#xE016;"
      horiz-adv-x="560" d=" M40 508.8L40 464L520 464L520 508.8L40 508.8L40 508.8zM55 58.666667C55 54.186667 58 51.2 62.5 51.2L497.5 51.2C502 51.2 505 54.186667 505 58.666667L505 439.4666670000001L55 439.4666670000001L55 58.666667zM332.5 340.266667C337 340.266667 340 337.28 340 332.8L340 302.933333C340 298.453333 337 295.466667 332.5 295.466667L227.5 295.466667C223 295.466667 220 298.453333 220 302.933333L220 332.8C220 337.28 223 340.266667 227.5 340.266667L332.5 340.266667z" />
    <glyph glyph-name="delivery-schedule"
      unicode="&#xE017;"
      horiz-adv-x="560" d=" M474.7896 460.3416L474.7896 503.3592C474.7896 512.8248 467.1144 520.5 457.6392 520.5C448.1688 520.5 440.4984 512.8248 440.4984 503.3592L440.4984 460.3464L120.2232 460.3464L120.2232 503.3592C120.2232 512.8248 112.5528 520.5 103.0824 520.5C93.612 520.5 85.9416 512.8248 85.9416 503.3592L85.9416 460.3464L40.5 460.3464L40.5 368.916L40.5 94.6296C40.5 69.3816 60.972 48.9144 86.2104 48.9144L474.7848 48.9144C500.028 48.9144 520.4952 69.3864 520.4952 94.6296L520.4952 368.916L520.4952 460.3416L474.7896 460.3416L474.7896 460.3416zM474.7896 94.6296L86.2104 94.6296L86.2104 368.916L474.7848 368.916L474.7848 94.6296L474.7896 94.6296zM290.9864 126.2136L408.4472 126.2136L408.4472 157.836C408.4472 164.8632 404.7320000000001 168.3768 397.3016 168.3768L335.5544 168.3768C336.5672 172.9896 338.2712 177.2088 340.676 181.0296C343.0856 184.8408 345.9896 188.4504 349.412 191.868C352.8248 195.2808 356.5304 198.54 360.548 201.66C364.5704 204.7656 368.5832 207.9336 372.6008 211.1496C377.2184 214.7592 381.7304 218.676 386.1512 222.8904C390.5672 227.1096 394.484 231.78 397.8968 236.8968C401.3096 242.0088 404.0696 247.7832 406.1816 254.2104C408.2888 260.6328 409.3448 268.068 409.3448 276.4968C409.3448 294.7704 403.7192 309.0696000000001 392.4728 319.4184C381.2264 329.7528 363.4616 334.9224000000001 339.1736 334.9224000000001C326.924 334.9224000000001 315.7784 333.7704 305.7416 331.4616C295.6952 329.1528 288.0632 326.7912 282.8456 324.3816L282.8456 301.0056C282.8456 293.9064 286.6568 290.3496 294.2936000000001 290.3496L306.4904 290.3496L326.8184 290.3496C337.0616 290.3496 344.8376 289.2936000000001 350.1608 287.2008C355.4648000000001 285.0984000000001 358.1384 279.8472 358.1384 271.4472C358.1384 268.0488000000001 357.6872 264.996 356.7848 262.2984C355.8824 259.596 354.2744 256.7928 351.9608 253.8936C349.6568 250.9944 346.4936 247.7928 342.476 244.2936000000001C338.4584 240.7944 333.3416000000001 236.5368000000001 327.116 231.54C321.692 227.1336 316.1720000000001 222.4392 310.5512 217.4376C304.9304 212.4408 299.8616 206.7384 295.3448 200.34C290.828 193.9368 287.108 186.684 284.204 178.5816C281.2856 170.4792 279.8408 161.2296 279.8408 150.8328L279.8408 136.7256C279.8456 129.7128 283.556 126.2136 290.9864 126.2136L290.9864 126.2136zM140.7032 272.5848C141.7112 272.5848 142.8584 272.7336 144.1736 273.036C145.4696 273.3336 147.8312 273.9912 151.2488 274.9944L173.2376 281.3208L173.2376 136.7592C173.2376 129.7272 176.9432 126.2184 184.3784 126.2184L224.1272 126.2184L224.1272 324.3864C224.1272 327.4008 223.1192 329.9064 221.1176 331.9176C219.1016 333.9192 216.6008 334.9224000000001 213.5912 334.9224000000001C210.5768 334.9224000000001 206.5592 334.4232 201.5432 333.42C196.5128 332.4168 190.892 331.0152 184.676 329.2056C178.4504 327.4008 171.9752 325.3368000000001 165.2504 323.028C158.5208 320.7192 152.0408 318.2568 145.8248 315.6504L133.4792 310.5336L133.4792 279.2136C133.4792 276.804 134.1752 275.0952 135.5864 274.092C136.988 273.084 138.6968 272.5848 140.7032 272.5848L140.7032 272.5848z" />
    <glyph glyph-name="delivery"
      unicode="&#xE018;"
      horiz-adv-x="560" d=" M204.989688 262.624434L355.010312 262.624434C363.229798 262.624434 370.009374 270.443439 370.009374 280L370.009374 419.004525C370.009374 428.561086 363.229798 436.38009 355.010312 436.38009L204.989688 436.38009C196.740204 436.38009 189.990626 428.561086 189.990626 419.004525L189.990626 280C189.990626 270.443439 196.740204 262.624434 204.989688 262.624434zM84.9971877 366.877828L144.993438 366.877828C153.242922 366.877828 159.9925 374.696833 159.9925 384.253394C159.9925 393.809955 153.242922 401.628959 144.993438 401.628959L84.9971877 401.628959C76.7477033 401.628959 69.9981251 393.809955 69.9981251 384.253394C69.9981251 374.696833 76.7477033 366.877828 84.9971877 366.877828zM490.001875 505.8823529C460.873695 505.8823529 430.005625 481.52181 430.005625 436.38009L430.005625 262.624434C430.005625 227.873303 429.405662 227.873303 400.0075 227.873303L69.9981251 227.873303C53.4391601 227.873303 40 212.304796 40 193.122172C40 173.939548 53.4391601 158.371041 69.9981251 158.371041L400.0075 158.371041C429.195675 158.371041 490.001875 158.371041 490.001875 262.624434L490.001875 436.38009C506.56084 436.38009 520 451.948597 520 471.1312217C520 490.3138462 506.56084 505.8823529 490.001875 505.8823529zM99.9962502 106.244344C99.9962502 77.435656 120.15499 54.117647 144.993438 54.117647C169.861884 54.117647 189.990626 77.435656 189.990626 106.244344C189.990626 135.053032 169.861884 158.371041 144.993438 158.371041C120.15499 158.371041 99.9962502 135.053032 99.9962502 106.244344zM310.013124 106.244344C310.013124 77.435656 330.1718640000001 54.117647 355.010312 54.117647C379.848759 54.117647 400.0075 77.435656 400.0075 106.244344C400.0075 135.053032 379.848759 158.371041 355.010312 158.371041C330.1718640000001 158.371041 310.013124 135.053032 310.013124 106.244344zM84.9971877 262.624434L144.993438 262.624434C153.242922 262.624434 159.9925 270.443439 159.9925 280L159.9925 314.751131C159.9925 324.307692 153.242922 332.1266970000001 144.993438 332.1266970000001L84.9971877 332.1266970000001C76.7477033 332.1266970000001 69.9981251 324.307692 69.9981251 314.751131L69.9981251 280C69.9981251 270.443439 76.7477033 262.624434 84.9971877 262.624434z" />
    <glyph glyph-name="discount"
      unicode="&#xE019;"
      horiz-adv-x="560" d=" M475.6525 427.06L427.6525 356.5525L413.2675 366.3475L461.2525 436.855C467.815 446.485 470.41 457.9825 468.55 469.24C466.7275 480.34 460.81 489.7975 451.8775 495.8725C433.2025 508.5775 407.0425 502.78 393.5350000000001 482.9425L379.15 492.7375C398.05 520.5025 435.0625 528.355 461.68 510.265C474.5875 501.475 483.1225 487.9075 485.7325 472.06C488.305 456.385 484.72 440.4025000000001 475.6525 427.06zM465.9775 392.2375C472.3225 383.9875 476.0425 373.7200000000001 475.615 363.145L471.5425 260.515C470.665 238.195 455.785 208.3825 438.4675 194.26L260.56 49.105C243.25 34.99 217.54 37.585 203.4175 54.895L82.57 203.005C68.44 220.315 71.0425 246.025 88.3525 260.1475L266.26 405.3025C283.5625 419.4175 315.79 428.23 337.8775 424.8775L429.5950000000001 410.95L412.15 385.3375C397.9 381.91 387.295 369.1075 387.295 353.8075C387.295 335.8675 401.8375 321.3325 419.77 321.3325C437.7025 321.3325 452.245 335.8675 452.245 353.8075C452.245 358.7125 451.12 363.355 449.17 367.5325000000001L465.9775 392.2375zM220.5325 214.66C238.225 214.66 254.44 228.0325000000001 254.44 253.6525C254.44 274.5625 242.5675 290.0125 221.47 290.0125C200.5525 290.0125 187.18 273.43 187.18 251.5825C187.18 228.5950000000001 201.8725 214.66 220.5325 214.66zM237.295 163.42L307.75 290.0125L292.3 290.0125L222.0475 163.42M342.6025 202.795C342.6025 223.6975 330.7375 239.155 309.64 239.155C288.7225000000001 239.155 275.35 222.5725 275.35 200.7175C275.5375 177.73 290.23 163.795 308.6875 163.795C326.4025 163.795 342.6025 177.175 342.6025 202.795zM321.31 201.475C321.31 187.72 317.3575 179.4325 309.2575 179.4325C300.9700000000001 179.4325 296.635 188.6575 296.8225 201.475C296.8225 213.715 300.5875 223.51 309.2575 223.51C318.1075 223.51 321.3175 213.9025 321.31 201.475zM233.1475 252.34C233.1475 238.585 229.195 230.2975 221.095 230.2975C212.8 230.2975 208.48 239.53 208.48 252.34C208.48 264.58 212.4325 274.375 220.915 274.375C229.765 274.375 233.1475 264.775 233.1475 252.34z" />
    <glyph glyph-name="exclamation"
      unicode="&#xE01A;"
      horiz-adv-x="560" d=" M223.374486 463.3759848C223.374486 494.6485649 248.719716 520 280 520C311.273408 520 336.625514 494.6553968 336.625514 463.3759848L336.625514 274.401793C336.625514 243.129213 311.280284 217.777778 280 217.777778C248.726592 217.777778 223.374486 243.122381 223.374486 274.401793L223.374486 463.3759848zM223.374486 95.967078C223.374486 126.876842 248.4383 151.934156 279.336433 151.934156L280.663567 151.934156C311.570497 151.934156 336.625514 126.883638 336.625514 95.967078C336.625514 65.057314 311.5617 40 280.663567 40L279.336433 40C248.429503 40 223.374486 65.050518 223.374486 95.967078z" />
    <glyph glyph-name="exit"
      unicode="&#xE01B;"
      horiz-adv-x="560" d=" M280 323.964934L93.1505004 510.8144332C81.0085565 522.9563771 61.3246797 522.9564827 49.1840985 510.8159015C37.0408479 498.6726509 37.0441747 478.9908917 49.1855668 466.8494996L236.035066 280L49.1855668 93.1505C37.0436229 81.008556 37.0435173 61.32468 49.1840985 49.184099C61.3273491 37.040848 81.0091083 37.044175 93.1505004 49.185567L280 236.035066L466.8495 49.185567C478.991444 37.043623 498.67532 37.043517 510.815901 49.184099C522.959152 61.327349 522.955825 81.009108 510.814433 93.1505L323.9649340000001 280L510.814433 466.8494996C522.956377 478.9914435 522.956483 498.6753203 510.815901 510.8159015C498.672651 522.9591521 478.990892 522.9558253 466.8495 510.8144332L280 323.964934z" />
    <glyph glyph-name="exp-delivery"
      unicode="&#xE01C;"
      horiz-adv-x="560" d=" M51.8571429 305.436508L51.8571429 330.8333330000001L51.8571429 330.8333330000001L171.230364 330.8333330000001C178.234424 330.8333330000001 183.920635 336.518606 183.920635 343.531746C183.920635 350.546428 178.239007 356.230159 171.230364 356.230159L51.8571429 356.230159L51.8571429 376.547619L227.10338 376.547619C234.10744 376.547619 239.793651 382.232892 239.793651 389.246032C239.793651 396.260713 234.112023 401.944444 227.10338 401.944444L51.8571429 401.944444L51.8571429 401.944444L51.8571429 408.608571C51.8571429 424.3901590000001 64.6520635 437.5 80.4285714 437.5L351.854603 437.5C367.63619 437.5 382.015873 424.3901590000001 382.015873 408.608571L382.015873 394.325397L382.015873 351.465714L382.015873 231.130476C356.619048 220.077778 337.571429 193.690476 337.571429 163.214286L223.285714 163.214286C223.285714 203.849206 190.605079 235.910159 151.219683 235.915238C135.08254 235.915238 122.968254 231.602857 107.730159 222.53619L107.730159 224.166667L80.4285714 224.166667C64.6520635 224.166667 51.8571429 235.691746 51.8571429 251.463175L51.8571429 280.0396830000001L110.277983 280.0396830000001C117.282043 280.0396830000001 122.968254 285.724956 122.968254 292.738095C122.968254 299.752777 117.286626 305.436508 110.277983 305.436508L51.8571429 305.436508L51.8571429 305.436508L51.8571429 305.436508zM493.208254 325.911429C486.147937 340.032063 467.63873 351.470794 451.857143 351.470794L394.714286 351.470794L394.714286 235.732381C399.331429 236.682222 404.11619 237.185079 408.99746 237.185079C448.377778 237.185079 480.423492 205.139365 480.423492 165.759048C496.2 165.759048 508.994921 178.553968 508.994921 194.330476L508.994921 237.190159L508.994921 294.333016L493.208254 325.911429L493.208254 325.911429zM488.687619 280.0396830000001L423.285714 280.0396830000001L423.285714 337.18254L451.857143 337.18254C459.755556 337.18254 469 331.463175 472.530159 324.4028570000001L488.687619 292.093016L488.687619 280.0396830000001L488.687619 280.0396830000001zM151.859683 122.894286C175.530432 122.894286 194.719365 142.083219 194.719365 165.753968C194.719365 189.424717 175.530432 208.613651 151.859683 208.613651C128.188933 208.613651 109 189.424717 109 165.753968C109 142.083219 128.188933 122.894286 151.859683 122.894286L151.859683 122.894286L151.859683 122.894286zM408.99746 122.894286C432.668209 122.894286 451.857143 142.083219 451.857143 165.753968C451.857143 189.424717 432.668209 208.613651 408.99746 208.613651C385.326711 208.613651 366.1377780000001 189.424717 366.1377780000001 165.753968C366.1377780000001 142.083219 385.326711 122.894286 408.99746 122.894286L408.99746 122.894286L408.99746 122.894286z" />
    <glyph glyph-name="eye-closed"
      unicode="&#xE01D;"
      horiz-adv-x="560" d=" M479.972415 376.18734L514.774342 377.070539C501.045037 364.352757 487.560194 352.842147 474.328432 342.451475C476.851003 341.7636740000001 479.139938 340.181965 480.675734 337.817046L518.218363 280.006467C521.537056 274.896128 520.086052 268.063965 514.974945 264.744774C509.864962 261.426312 503.031527 262.879906 499.713478 267.989254L462.170849 325.7998330000001C460.956141 327.670319 460.380432 329.77148 460.389313 331.846622C438.010011 315.3693 416.3837470000001 302.093991 395.553982 291.580923C395.996581 290.952206 396.379786 290.267392 396.692354 289.531027L423.625924 226.079512C426.006797 220.470526 423.391444 213.994123 417.781616 211.612892C412.17302 209.232184 405.695814 211.850308 403.315402 217.458207L376.381832 280.909722C376.179379 281.386672 376.013052 281.869893 375.88162 282.356335C349.046619 270.737508 323.625228 263.692751 299.717579 260.208831L307.686387 195.308099C308.428984 189.260138 304.1298070000001 183.755509 298.080937 183.012801C292.033396 182.270256 286.528759 186.572318 285.786307 192.619107L277.763978 257.955734C242.297733 255.8564150000001 210.520478 261.503656 182.801648 271.15917L167.860781 206.443166C166.490069 200.505959 160.56747 196.803705 154.629371 198.174623C148.692577 199.54524 144.991302 205.470553 146.361748 211.406609L161.867897 278.571119C161.93291 278.8527220000001 162.008164 279.129297 162.093173 279.400541C137.172961 290.5795560000001 116.191475 304.641293 99.4897922 318.134369L59.8436411 265.52215C56.1765535 260.65576 49.2601477 259.682521 44.3930266 263.35016C39.5269755 267.016992 38.5557343 273.935479 42.2221111 278.800925L82.7931564 332.6405210000001C63.2010949 350.931518 52.884098 365.348749 52.884098 365.348749L80.3160952 366.044914C128.748028 313.5938300000001 273.405804 196.169354 479.972415 376.18734z" />
    <glyph glyph-name="eye-open"
      unicode="&#xE01E;"
      horiz-adv-x="560" d=" M280.002667 369.991937C150.629274 369.991937 48.3672002 257.319384 44.0790112 252.530629C38.1839724 245.938762 38.7456372 235.818853 45.329326 229.925753C48.3818523 227.184435 52.1914052 225.840652 55.996074 225.840652C60.3868279 225.840652 64.7629297 227.638878 67.9229049 231.176693C68.8801772 232.246833 164.768576 337.975692 280.002667 337.975692C294.03452 337.975692 307.783098 336.382698 321.131185 333.6022890000001C321.429112 333.260235 321.658662 332.883975 321.990777 332.566354C334.445084 320.350143 341.292511 303.799621 341.292511 285.978613C341.292511 250.712857 313.800238 222.024308 280.002667 222.024308C246.200211 222.024308 218.707938 250.712857 218.707938 285.978613C218.707938 294.818263 211.538164 301.986736 202.707816 301.986736C193.862815 301.986736 186.707694 294.818263 186.707694 285.978613C186.707694 233.062876 228.549283 190.008063 280.002667 190.008063C331.441398 190.008063 373.292755 233.062876 373.292755 285.978613C373.292755 297.427646 371.270762 308.495533 367.58331 318.898858C439.955047 288.40231 491.388894 231.943871 492.082428 231.162034C497.987235 224.579939 508.097202 224.02288 514.676007 229.935526C521.249928 235.833512 521.816477 245.938762 515.926322 252.530629C511.628365 257.319384 409.380943 369.991937 280.002667 369.991937z" />
    <glyph glyph-name="gift"
      unicode="&#xE01F;"
      horiz-adv-x="560" d=" M485.231954 399.154079L382.495394 399.154079C383.942388 400.1208460000001 385.389382 401.0876130000001 386.836376 401.5709970000001C418.187908 423.323263 427.834534 464.4108761 408.058952 493.4138973C396.483001 509.8489426 377.18975 520 355.967175 520C341.497237 520 327.0272990000001 515.6495468 314.969017 506.9486405C300.98141 497.2809668 289.40546 475.5287009 280.723497 454.743202L280.241166 454.743202L279.276503 454.743202C271.076872 475.5287009 259.500921 497.2809668 245.030983 506.9486405C232.49037 515.6495468 218.502763 520 204.032825 520C182.81025 520 163.516999 509.8489426 151.941048 493.4138973C132.165466 464.4108761 141.329761 422.839879 173.163624 401.5709970000001C174.610618 400.6042300000001 176.057612 399.6374620000001 177.504606 399.154079L74.2857143 399.154079L74.2857143 260.906344L105.637247 260.906344L105.637247 40L454.362753 40L454.362753 260.906344L485.714286 260.906344L485.714286 399.154079L485.231954 399.154079zM330.403617 484.2296073C338.120918 489.5468278 346.802881 492.4471299 355.967175 492.4471299C368.025456 492.4471299 379.119076 487.1299094 385.389382 477.9456193C396.483001 461.510574 390.695026 437.34139 371.401775 424.29003C368.025456 421.873112 356.931837 416.555891 326.062636 416.072508L326.062636 418.006042C326.062636 430.090634 318.827667 440.725076 307.734048 447.492447C314.486686 464.8942598 322.686317 479.3957704 330.403617 484.2296073L330.403617 484.2296073zM174.610618 477.9456193C180.880924 487.1299094 191.492212 492.4471299 204.032825 492.4471299C212.714788 492.4471299 221.879082 489.5468278 229.596383 484.2296073C237.313683 478.9123867 245.030983 464.4108761 252.265952 447.492447C241.172333 440.725076 233.937364 430.090634 233.937364 418.006042L233.937364 416.072508C203.068163 416.555891 191.974544 421.873112 188.598225 424.29003C169.304974 437.34139 163.034668 461.510574 174.610618 477.9456193L174.610618 477.9456193zM450.986434 303.927492L309.663373 303.927492L309.663373 364.350453L450.504103 364.350453L450.504103 303.927492L450.986434 303.927492zM108.531234 364.350453L249.371964 364.350453L249.371964 303.927492L108.531234 303.927492L108.531234 364.350453L108.531234 364.350453zM139.882767 259.456193L249.854296 259.456193L249.854296 74.320242L139.882767 74.320242L139.882767 259.456193L139.882767 259.456193zM419.634902 74.320242L309.663373 74.320242L309.663373 259.456193L419.634902 259.456193L419.634902 74.320242L419.634902 74.320242z" />
    <glyph glyph-name="home"
      unicode="&#xE020;"
      horiz-adv-x="560" d=" M85.9130435 259.130435L85.9130435 50.434783C85.9130435 41.214029 93.3879416 33.73913 102.608696 33.73913L227.826087 33.73913C237.046841 33.73913 244.521739 41.214029 244.521739 50.434783L244.521739 196.521739L227.826087 179.826087L332.1739130000001 179.826087L315.478261 196.521739L315.478261 50.434783C315.478261 41.214029 322.9531590000001 33.73913 332.1739130000001 33.73913L457.391304 33.73913C466.612058 33.73913 474.086957 41.214029 474.086957 50.434783L474.086957 248.695652C474.086957 257.916406 466.612058 265.391304 457.391304 265.391304C448.17055 265.391304 440.695652 257.916406 440.695652 248.695652L440.695652 50.434783L457.391304 67.130435L332.1739130000001 67.130435L348.869565 50.434783L348.869565 196.521739C348.869565 205.742493 341.3946670000001 213.217391 332.1739130000001 213.217391L227.826087 213.217391C218.605333 213.217391 211.130435 205.742493 211.130435 196.521739L211.130435 50.434783L227.826087 67.130435L102.608696 67.130435L119.304348 50.434783L119.304348 259.130435C119.304348 268.351189 111.82945 275.826087 102.608696 275.826087C93.3879416 275.826087 85.9130435 268.351189 85.9130435 259.130435L85.9130435 259.130435zM51.8056089 257.759609L291.805609 497.7596085L268.194391 497.7596085L508.194391 257.759609C514.714449 251.239551 525.285551 251.239551 531.805609 257.759609C538.325667 264.279666 538.325667 274.850769 531.805609 281.370826L291.805609 521.3708263C285.285551 527.890884 274.714449 527.890884 268.194391 521.3708263L28.1943911 281.370826C21.6743334 274.850769 21.6743334 264.279666 28.1943911 257.759609C34.7144489 251.239551 45.2855511 251.239551 51.8056089 257.759609L51.8056089 257.759609zM363.478261 472L436.5217390000001 472L419.826087 488.6956522L419.826087 415.652174C419.826087 406.43142 427.3009850000001 398.956522 436.5217390000001 398.956522C445.742493 398.956522 453.217391 406.43142 453.217391 415.652174L453.217391 488.6956522C453.217391 497.9164063 445.742493 505.3913043 436.5217390000001 505.3913043L363.478261 505.3913043C354.257507 505.3913043 346.782609 497.9164063 346.782609 488.6956522C346.782609 479.4748981 354.257507 472 363.478261 472L363.478261 472z" />
    <glyph glyph-name="imported"
      unicode="&#xE021;"
      horiz-adv-x="560" d=" M280 520C148 520 40 412 40 280C40 148 148 40 280 40C412 40 520 148 520 280C520 412 412 520 280 520zM481.6 280C481.6 213.154567 448.165089 153.348063 397.277612 116.562832C394.900979 124.103133 392.069687 132.451567 390.4 140.8C385.6 150.4 383.2 160 380.8 169.6C378.4 176.8 378.4 188.8 371.2 196C368.8 200.8 364 200.8 359.2 203.2C342.4 210.4 320.8 200.8 308.8 217.6C304 224.8 306.4 232 306.4 241.6C311.2 248.8 313.6 256 318.4 263.2C323.2 275.2 330.4 284.8 332.8 296.8C335.2 301.6 332.8 308.8 335.2 313.6C337.6 316 342.4 318.4 347.2 320.8C349.6 323.2 352 323.2 352 325.6C352 328 349.6 328 349.6 330.4C349.6 332.8 352 337.6 354.4 340C366.4 352 378.4 361.6 390.4 373.6C392.8 373.6 392.8 376 392.8 376C395.2 378.4 392.8 380.8 390.4 380.8C385.6 383.2 383.2 383.2 378.4 385.6C376 385.6 373.6 385.6 373.6 388C371.2 390.4 373.6 395.2 376 397.6L390.4 419.2C395.160185 423.960185 399.92037 433.441069 407.021326 435.938798C452.390215 398.809079 481.6 342.479254 481.6 280zM159.413694 440.99446C176.155479 445.963851 194.392343 447.282297 208 443.2C215.2 440.8 222.4 436 227.2 431.2C232 426.4 239.2 419.2 239.2 412C239.2 409.6 239.2 409.6 236.8 407.2C234.4 404.8 232 404.8 229.6 404.8C222.4 404.8 215.2 404.8 210.4 407.2C208 409.6 203.2 414.4 200.8 416.8C186.4 421.6 164.8 390.4 162.4 380.8C160 373.6 160 356.8 172 354.4C179.2 354.4 193.6 368.8 200.8 373.6C205.6 376 208 378.4 212.8 380.8C232 383.2 246.4 366.4 251.2 349.6C258.4 330.4 222.4 316 208 311.2C203.2 308.8 200.8 313.6 196 311.2C184 306.4 169.6 292 169.6 277.6C167.2 265.6 167.2 253.6 164.8 241.6C162.4 241.6 160 241.6 160 244L160 248.8C160 256 157.6 265.6 150.4 268C148 270.4 148 270.4 145.6 270.4C138.4 270.4 131.2 277.6 124 272.8C119.2 268 114.4 260.8 114.4 253.6C114.4 251.2 114.4 248.8 116.8 246.4C121.6 244 126.4 248.8 131.2 246.4C136 246.4 136 241.6 136 239.2C140.8 232 145.6 222.4 152.8 220L169.6 220L200.8 220C208 217.6 220 215.2 224.8 210.4C227.2 205.6 227.2 200.8 229.6 196C241.6 184 256 184 270.4 179.2C275.2 176.8 277.6 174.4 277.6 169.6C280 162.4 277.6 152.8 275.2 148C272.8 140.8 270.4 131.2 265.6 126.4C260.8 121.6 256 119.2 251.2 116.8C244 112 239.2 102.4 232 95.2C232 93.97592 229.502715 89.630235 226.737117 85.665613C208.518834 90.737766 191.295843 98.336529 175.478388 108.051654C174.921549 111.954653 174.4 115.681198 174.4 116.8C172 124 169.6 133.6 167.2 140.8C162.4 152.8 152.8 164.8 152.8 179.2C152.8 191.2 155.2 203.2 148 212.8C138.4 224.8 119.2 224.8 109.6 232C98.3627157 239.491523 87.1254313 249.906114 79.3097462 260.962708C78.707958 267.23422 78.4 273.584693 78.4 280C78.4 345.385668 110.390558 404.036481 159.413694 440.99446L159.413694 440.99446zM354.748148 467.0096845C353.881684 460.8324632 349.0753900000001 454.150779 347.2 450.4C344.8 443.2 340 433.6 332.8 428.8C328 424 320.8 416.8 313.6 412C306.4 407.2 299.2 400 292 395.2C287.2 392.8 284.8 390.4 282.4 390.4L280 390.4C275.2 395.2 275.2 407.2 275.2 414.4C275.2 426.4 282.4 433.6 280 445.6C280 448 277.6 467.2 277.6 467.2C268 469.6 258.4 467.2 260.8 479.2C260.979623 479.7388687 261.199576 480.2508504 261.455836 480.7369513C267.567046 481.3079684 273.752783 481.6 280 481.6C306.334244 481.6 331.57603 476.410824 354.748148 467.0096845z" />
    <glyph glyph-name="lock"
      unicode="&#xE022;"
      horiz-adv-x="560" d=" M426.100026 328.719346L426.100026 378.925903C426.100026 456.714424 362.81445 520 285.02593 520C207.237409 520 143.951833 456.714424 143.951833 378.925903L143.951833 330.143272C113.268876 324.1416890000001 90.1379977 298.321174 90.1379977 267.469456L90.1379977 103.97117C90.1379977 67.497583 117.044915 40 152.727433 40L402.410126 40C439.590402 40 469.862002 68.700009 469.862002 103.97117L469.862002 267.469456C469.851455 297.171486 451.994375 320.914125 426.100026 328.719346L426.100026 328.719346zM319.548211 131.278896L240.441241 131.278896L240.441241 242.039202L319.548211 242.039202L319.548211 131.278896L319.548211 131.278896zM373.362046 331.4511730000001L196.689813 331.4511730000001L196.689813 378.915356C196.689813 427.624154 236.327679 467.2514723 285.02593 467.2514723C333.745276 467.2514723 373.362046 427.624154 373.362046 378.915356L373.362046 331.4511730000001L373.362046 331.4511730000001z" />
    <glyph glyph-name="menu"
      unicode="&#xE023;"
      horiz-adv-x="560" d=" M40 417.142857C40 429.7665090000001 50.2336012 440 62.8486051 440L497.151395 440C509.770331 440 520 429.769284 520 417.142857C520 404.519206 509.766399 394.285714 497.151395 394.285714L62.8486051 394.285714C50.229669 394.285714 40 404.51643 40 417.142857zM40 280C40 292.623651 50.2336012 302.857143 62.8486051 302.857143L497.151395 302.857143C509.770331 302.857143 520 292.626427 520 280C520 267.376349 509.766399 257.142857 497.151395 257.142857L62.8486051 257.142857C50.229669 257.142857 40 267.373573 40 280zM40 142.857143C40 155.480794 50.2336012 165.714286 62.8486051 165.714286L497.151395 165.714286C509.770331 165.714286 520 155.48357 520 142.857143C520 130.233491 509.766399 120 497.151395 120L62.8486051 120C50.229669 120 40 130.230716 40 142.857143z" />
    <glyph glyph-name="orders"
      unicode="&#xE024;"
      horiz-adv-x="560" d=" M520 412.862551C519.968001 414.220093 519.86667 414.706456 519.808005 415.198164C519.738674 415.743318 519.701341 416.288473 519.584011 416.817593C518.992027 418.6775320000001 518.826698 419.260099 518.576038 419.821287C517.626729 421.5582980000001 517.354737 422.071385 517.013412 422.552404C516.70942 422.979976 516.362763 423.354101 516.026772 423.744261C515.685447 424.139765 515.354789 424.540614 514.970799 424.90405C514.57081 425.28352 514.133488 425.604199 513.7015 425.935568C513.312177 426.234868 512.93352 426.544858 512.512198 426.81209C512.005544 427.132769 511.461559 427.383968 510.922906 427.645856C510.592248 427.806195 284.299557 518.8630122 284.299557 518.8630122C282.6836 519.35472 282.054283 519.5738507 281.392967 519.7021224C279.409019 519.921253 278.859701 520.0014228 278.289049 519.9960782C277.761063 519.9960782 277.243743 519.9159084 276.72109 519.8624619C276.209104 519.8090154 275.702451 519.7876368 275.190464 519.6860884C274.593147 519.5685061 274.022495 519.3600647 273.441177 519.1730019C273.06252 519.0500749 176.451738 479.7401678 176.451738 479.7401678C175.806422 479.5317264 175.198438 479.2644939 174.585121 478.9758827L49.9750777 428.126874C48.3111216 427.266386 47.8578003 427.047255 47.4258117 426.774678C46.7644958 426.368484 46.5085026 426.095907 46.2098438 425.866087C45.7885216 425.5400630000001 45.3671994 425.224729 44.9832095 424.855948C44.5938864 424.481822 44.2525621 424.070284 43.9059046 423.658746C43.5805799 423.284621 43.2499219 422.9211840000001 42.9619295 422.509646C42.503275 421.884322 42.3432792 421.494163 42.1406179 421.136071C41.4526361 419.92818 41.4419697 419.853355 41.4099705 419.783874C40.8819845 418.2927170000001 40.8339857 418.143067 40.7913202 417.993416C40.3859976 416.678632 40.3593316 416.6144960000001 40.343332 416.5450160000001C40.2260018 415.599013 40.2100022 415.347814 40.178003 415.0966160000001C40.1246711 414.615597 40.0286737 414.1345780000001 40.0180073 413.65356C40.0126741 413.332881 40.0073409 155.816913 40.0073409 155.816913C39.815346 149.007827 43.3992513 142.818722 49.6070874 140.108984L275.259796 41.350525C276.3691 40.922953 277.185078 40.66641 278.0170560000001 40.468658C279.723678 40.1266000000001 280.667653 40.009018 281.616961 40.0036730000001C286.182174 40.0036730000001 289.3980890000001 41.168807 292.038019 43.092881L510.426919 139.104189C516.773419 141.894097 520.346658 148.318367 519.904003 154.870909C519.920002 155.186244 520 412.862551 520 412.862551zM181.027617 446.966769L360.292217 363.451254L281.611628 326.476959L96.1605248 412.34412L181.027617 446.966769L181.027617 446.966769zM463.873482 408.998121L398.083219 381.2115290000001L224.504508 463.597277L278.39038 486.6882139L463.873482 408.998121zM260.50398 291.6998050000001L260.50398 86.202765L78.1067719 171.70164L78.1067719 375.998443L260.50398 291.6998050000001zM481.900569 381.998259L481.900569 170.50186L304.903287 87.103172L304.903287 292.899585L481.900569 381.998259z" />
    <glyph glyph-name="payment-paypal"
      unicode="&#xE025;"
      horiz-adv-x="560" d=" M139.627487 127.696063L128.697258 79.67408C126.076086 68.941181 133.226302 59.995652 144.037565 60.056388L195.3438 60.15183C206.223816 60.056388 217.310089 68.941181 219.879696 79.67408L237.222407 156.322772C239.654512 167.064348 250.715002 176.061936 261.775492 175.905757L276.359526 175.905757C338.941101 175.905757 387.462878 188.885884 422.208457 214.724666C456.868096 240.693598 474.313934 274.757755 474.313934 317.125375C474.202213 335.623792 471.082587 351.206885 464.568328 363.570977C464.568328 363.570977 454.439617 377.8818770000001 444.173792 387.67647C444.1972600000001 386.698533 444.211968 385.7121170000001 444.217977 384.717268C444.217977 342.349648 426.772138 308.285491 392.112499 282.316559C357.36692 256.477777 308.845143 243.49765 246.263568 243.49765L231.679534 243.49765C220.619044 243.653829 209.558555 234.656241 207.12645 223.914665L189.783739 147.265973C187.214131 136.533074 176.127858 127.648281 165.247842 127.743723L139.627487 127.696063zM422.100239 448.275031C415.732078 460.7866238 406.115382 470.8601052 393.954859 478.7037112C381.484951 486.5299648 366.66888 491.9875178 349.515237 495.1718137C332.550663 498.1739016 312.380523 499.8918602 289.400142 499.9439198L182.47348 499.8918602C171.464553 499.7009754 160.661883 490.9723609 158.118057 480.2221082L86.2291692 164.378134C83.607997 153.645234 90.758213 144.699706 101.569476 144.760441L152.875711 144.855884C163.755727 144.760441 174.842 153.645234 177.411607 164.378134L194.754318 241.026825C197.186423 251.768401 208.246913 260.76599 219.307403 260.609811L233.891436 260.609811C296.473012 260.609811 344.9947890000001 273.589938 379.740368 299.42872C414.400007 325.397652 431.845845 359.461809 431.845845 401.829429C431.734124 420.327846 428.6144980000001 435.910939 422.100239 448.275031z" />
    <glyph glyph-name="phone"
      unicode="&#xE026;"
      horiz-adv-x="560" d=" M193.696394 192.805337C162.23171 224.201885 131.751813 259.998585 107.792934 297.093283C75.9068249 346.461435 60.2628722 391.412285 64.756215 428.1040920000001C68.2579298 456.682005 83.9620883 479.3873623 113.05779 496.859021C112.088865 496.2768818 111.049641 496 110.330558 496C109.982136 496 109.882469 496.0134097 110.012174 495.9810206C110.551184 495.8464218 111.312713 495.5802872 112.260821 495.1661711C114.748348 494.0796649 117.87558 492.2578978 121.472679 489.7408771C128.999885 484.4738188 137.915362 476.6462879 147.607399 466.8591866C164.458122 449.843183 182.905669 427.5608640000001 195.195605 410.1593020000001C207.179622 393.189267 213.908198 380.8251860000001 216.534715 372.662615C216.940489 371.401568 217.204131 370.363228 217.353351 369.536613C217.440216 369.0554200000001 217.470257 368.759754 217.47267 368.6227340000001C217.46652 368.971943 217.575198 369.65537 217.742595 370.1888340000001C217.743789 370.19264 217.724557 370.136589 217.629283 369.867882C214.939886 362.287076 211.157358 357.794551 200.239121 348.153257C197.79422 345.993313 196.725728 345.039848 195.353285 343.776423C185.764022 334.94886 179.710633 327.059674 175.776533 315.97382L175.206803 314.368384L174.869551 312.69857C172.020969 298.594548 182.004562 278.421309 202.462453 253.276735C218.489245 233.578377 237.763635 214.671274 256.267072 200.047244C276.743801 183.863639 293.518281 174.415314 307.594552 174.415314L311.589463 174.415314L315.368966 175.7094C323.016518 178.327892 329.5778890000001 182.235709 335.646922 187.437587C339.761936 190.96464 342.4394480000001 193.798895 348.140687 200.257771C350.384649 202.797084 351.385212 203.914314 352.617498 205.237978C358.765407 211.841773 363.572842 215.413311 369.866735 217.647712C369.337193 217.459809 368.980652 217.401838 368.831358 217.401838C371.178545 217.401838 379.343442 214.286096 390.086086 208.153819C402.03387 201.333606 416.147989 191.521666 430.533914 180.067564C459.489324 157.013208 485.061138 130.863293 493.581998 115.822837C494.319855 114.518229 494.680883 113.838754 495.068032 112.992259C495.526617 111.98957 495.829522 111.119709 495.95962 110.494736C495.992076 110.338824 496.001403 110.263954 496.000843 110.282504C495.994568 110.490483 496.017043 110.782794 496.08903 111.144478C496.218502 111.79499 496.476175 112.472747 496.833116 113.068189C476.917406 79.837496 450.362987 64 415.60606 64C379.463254 64.002227 336.467535 81.429209 290.106169 112.529164C255.499163 135.744103 222.466981 164.094885 193.697035 192.804697L193.696394 192.805337zM159.791436 158.828082C190.578673 128.105196 225.844163 97.837616 263.366156 72.667256C316.909871 36.749265 368.095081 16.002927 415.604582 16C467.65512 16 509.618175 41.027462 538.003925 88.390983C540.521248 92.590334 542.234648 97.097088 543.165649 101.774746C545.370106 112.85066 543.244373 123.062391 538.719306 132.956385C537.620245 135.359466 536.727535 137.039592 535.353998 139.468127C523.114397 161.072669 493.793478 191.056446 460.432232 217.618736C423.679153 246.881612 391.235056 265.401838 368.831358 265.401838C363.654184 265.401838 358.589251 264.578318 353.811568 262.8830040000001C339.171968 257.685784 328.44328 249.715231 317.485389 237.94478C315.878693 236.218943 314.687919 234.889323 312.163458 232.032585C305.092967 224.022503 302.963894 222.197636 299.820138 221.121227L307.594552 198.415314L307.594552 222.415314C308.689109 222.415314 309.49208 222.312841 310.084057 222.178253C310.161052 222.160748 310.034926 222.199589 309.752204 222.305578C308.54824 222.756929 306.790871 223.602239 304.643865 224.811553C299.515633 227.700061 293.069428 232.142266 286.030121 237.705721C270.247048 250.179735 253.482602 266.624722 239.695679 283.570082C231.75199 293.333584 226.469746 301.298155 223.541502 307.215079C222.673726 308.968541 222.175264 310.220055 222.003437 310.824629C222.058381 310.63131 222.137663 310.261708 222.216926 309.642519C222.445764 307.854891 222.460533 305.874604 221.919519 303.195911L198.394535 307.947241L221.012537 299.920661C221.858511 302.304521 223.504188 304.449278 227.862849 308.46172C228.911432 309.42701 229.823235 310.240654 232.015036 312.1769980000001C239.604077 318.878461 243.299184 322.407986 247.834236 327.794287C254.348459 335.531259 259.385228 344.005215 262.868294 353.823198C262.988949 354.1634870000001 263.051565 354.34161 263.141064 354.602453C263.279257 355.0052100000001 263.410248 355.401833 263.540746 355.817706C269.584316 375.077454 261.926963 398.874636 234.403808 437.848953C220.636515 457.342335 200.504805 481.6589108 181.713762 500.6342661C170.158886 512.3024788 159.189629 521.9331682 148.99191 529.068882C135.416986 538.5677483 122.97999 544 110.330558 544C102.501865 544 94.9832648 541.9968114 88.3423525 538.0068902C46.9907 513.1756641 22.4786965 477.7357645 17.1123443 433.940322C10.9741391 383.816873 30.0614126 328.972091 67.4719787 271.050615C93.54569 230.681596 126.111716 192.43487 159.792078 158.827442L159.791436 158.828082z" />
    <glyph glyph-name="pin"
      unicode="&#xE027;"
      horiz-adv-x="560" d=" M240.31724 97.414989C245.800661 87.79727 250.889308 79.037563 255.452905 71.255591C258.204485 66.59439 260.178359 63.274082 261.244251 61.514159L274.220497 40L287.92313 61.04325C289.071924 62.803173 291.1997600000001 66.123481 294.160571 70.800645C299.095256 78.562663 304.586573 87.342324 310.508194 96.94408C327.408503 124.412445 344.308811 153.062073 360.099801 181.528127C368.058461 195.902825 375.551286 209.882439 382.507218 223.367199C415.182726 286.8920330000001 433.705558 335.3557590000001 433.705558 366.020719C433.70161 451.095628 364.848942 520 279.996052 520C195.143162 520 126.294442 451.095628 126.294442 366.0287C126.294442 335.599195 143.427667 287.195331 173.635833 223.810173C180.066714 210.325413 187.006854 196.341808 194.39309 181.987063C209.0116 153.536973 224.66442 124.867391 240.31724 97.414989L240.31724 97.414989zM202.087251 237.670064C173.99113 296.625484 157.876424 342.163987 157.876424 366.0287C157.876424 433.404613 212.513253 488.073962 279.996052 488.073962C347.486747 488.073962 402.123576 433.404613 402.123576 366.0287C402.123576 342.395451 384.745591 296.9247910000001 354.490052 238.105057C347.703874 224.931575 340.365011 211.247277 332.560313 197.151931C317.0140830000001 169.152796 300.362483 140.890271 283.691144 113.813C280.761915 109.060011 277.9471710000001 104.50656 275.246912 100.188563C272.819047 104.382846 270.304332 108.760704 267.683027 113.362045C252.247333 140.439316 236.81164 168.701841 222.422099 196.700976C215.174034 210.796322 208.372065 224.48062 202.087251 237.670064zM279.996052 286.696486C322.564616 286.696486 357.075827 321.583665 357.075827 364.623955C357.075827 407.648281 322.564616 442.551423 279.996052 442.551423C237.427488 442.551423 202.916278 407.648281 202.916278 364.623955C202.91233 321.583665 237.423541 286.696486 279.996052 286.696486zM279.996052 410.629375C305.139258 410.629375 325.493845 390.021118 325.493845 364.627945C325.493845 339.21881 305.139258 318.6265150000001 279.996052 318.6265150000001C254.868638 318.6265150000001 234.49826 339.21881 234.49826 364.627945C234.494312 390.021118 254.86469 410.629375 279.996052 410.629375z" />
    <glyph glyph-name="review-checkout"
      unicode="&#xE028;"
      horiz-adv-x="560" d=" M420.38009 494.4L400.615385 494.4C397.574661 508.8 385.411765 520 370.714932 520L189.285068 520C174.588235 520 161.918552 508.8 159.384615 494.4L139.61991 494.4C108.705882 494.4 83.3665158 467.7333333 83.3665158 435.2L83.3665158 99.2C83.3665158 66.666667 108.705882 40 139.61991 40L420.38009 40C451.294118 40 476.633484 66.666667 476.633484 99.2L476.633484 435.2C477.140271 467.7333333 451.800905 494.4 420.38009 494.4L420.38009 494.4zM186.751131 488C186.751131 489.6 187.764706 490.6666667 189.285068 490.6666667L370.714932 490.6666667C372.235294 490.6666667 373.248869 489.6 373.248869 488L373.248869 465.0666667L373.248869 412.266667C373.248869 410.666667 372.235294 409.6 370.714932 409.6L189.285068 409.6C187.764706 409.6 186.751131 410.666667 186.751131 412.266667L186.751131 465.0666667L186.751131 488L186.751131 488zM448.760181 99.2C448.760181 82.666667 436.0904980000001 69.866667 420.38009 69.866667L139.61991 69.866667C123.909502 69.866667 111.239819 83.2 111.239819 99.2L111.239819 435.2C111.239819 451.733333 123.909502 464.5333333 139.61991 464.5333333L158.371041 464.5333333L158.371041 411.733333C158.371041 394.133333 172.054299 379.733333 188.778281 379.733333L370.208145 379.733333C386.932127 379.733333 400.615385 394.133333 400.615385 411.733333L400.615385 464.5333333L419.873303 464.5333333C435.58371 464.5333333 448.253394 451.2 448.253394 435.2L448.253394 99.2L448.760181 99.2zM387.438914 152.533333L172.561086 152.533333C164.959276 152.533333 158.371041 146.133333 158.371041 137.6C158.371041 129.066667 164.452489 122.666667 172.561086 122.666667L386.932127 122.666667C394.533937 122.666667 401.122172 129.066667 401.122172 137.6C401.122172 146.133333 395.040724 152.533333 387.438914 152.533333L387.438914 152.533333zM387.438914 238.4L172.561086 238.4C164.959276 238.4 158.371041 232 158.371041 223.466667C158.371041 215.466667 164.452489 208.533333 172.561086 208.533333L386.932127 208.533333C394.533937 208.533333 401.122172 214.933333 401.122172 223.466667C401.628959 232 395.040724 238.4 387.438914 238.4L387.438914 238.4zM387.438914 324.8L172.561086 324.8C164.959276 324.8 158.371041 318.4 158.371041 309.866667C158.371041 301.333333 164.452489 294.933333 172.561086 294.933333L386.932127 294.933333C394.533937 294.933333 401.122172 301.333333 401.122172 309.866667C401.122172 318.4 395.040724 324.8 387.438914 324.8L387.438914 324.8z" />
    <glyph glyph-name="s-facebook"
      unicode="&#xE029;"
      horiz-adv-x="560" d=" M280 40C412.548347 40 520 147.451653 520 280C520 412.5483470000001 412.548347 520 280 520C147.451653 520 40 412.5483470000001 40 280C40 147.451653 147.451653 40 280 40zM246.121734 149.442616L246.121734 280.010192L219.169957 280.010192L219.169957 325.006257L246.121734 325.006257L246.121734 352.021732C246.121734 388.7294510000001 261.340392 410.557384 304.5784 410.557384L340.575253 410.557384L340.575253 365.556222L318.074672 365.556222C301.243188 365.556222 300.129752 359.267984 300.129752 347.5323170000001L300.068602 325.011353L340.830043 325.011353L336.060359 280.015287L300.068602 280.015287L300.068602 149.442616L246.121734 149.442616z" />
    <glyph glyph-name="s-google"
      unicode="&#xE02A;"
      horiz-adv-x="560" d=" M55.1766191 195.823494C89.2737141 104.796195 177.069872 40 280 40C412.548347 40 520 147.451653 520 280C520 412.5483470000001 412.548347 520 280 520C147.451653 520 40 412.5483470000001 40 280C40 250.381782 45.3651557 222.016664 55.1766191 195.823494C64.9880826 169.630323 79.2458537 145.6091 97.0310847 124.678674C103.741909 135.963897 114.147554 147.059013 129.562888 156.17662C164.345188 177.488318 211.190714 180.30307 236.523487 181.911501C228.682391 191.964188 219.634972 202.620038 219.634972 220.111715C219.634972 229.561241 222.449724 235.190746 225.264477 241.82552C219.031811 241.222359 213.000198 240.619198 207.370693 240.619198C148.059834 240.619198 114.483856 284.851025 114.483856 328.47969C114.483856 354.214571 126.346028 382.804415 150.271425 403.492847C182.238973 429.770573 220.238133 434.254072 250.396197 434.254072L365.6 434.254072L329.812431 414.1285910000001L295.231185 414.1285910000001C308.0986250000001 403.492847 334.838775 381.115564 334.838775 338.532378C334.838775 297.115304 311.315485 277.613089 287.993249 259.116144C280.55426 251.878208 272.311056 244.037112 272.311056 231.772832C272.311056 219.508553 280.55426 212.672725 286.786927 207.646382L306.8923030000001 191.964188C331.621915 171.456705 353.938882 152.356598 353.938882 113.754277C353.938882 88.297476 342.058966 62.746763 318.911831 43.1383540000001C306.457526 41.10789 293.6812310000001 40.0360010000001 280.661151 40.000891C304.165279 50.311134 316.341829 69.175388 316.341829 91.839417C316.341829 120.389051 298.045937 135.468082 255.422541 165.8272C250.999358 166.229307 248.184605 166.229307 242.5551 166.229307C237.528756 166.229307 207.370693 165.224039 183.847403 157.382942C171.583124 152.959759 135.795555 139.489158 135.795555 99.680514C135.795555 95.354287 136.256103 91.159989 137.154667 87.120413C78.2050133 130.850177 40 200.963456 40 280C40 250.381782 45.3651557 222.016664 55.1766191 195.823493zM510.953088 345.4996720000001L454.115926 345.4996720000001L454.115926 282.437848L427.325302 282.437848L427.325302 345.4996720000001L364.814182 345.4996720000001L364.814182 371.746312L427.325302 371.746312L427.325302 434.254072L454.115926 434.254072L454.115926 371.746312L501.839546 371.746312L510.953088 345.4996720000001zM233.708735 256.301391C185.455833 256.301391 163.742027 318.427002 163.742027 356.024055C163.742027 370.499925 166.55678 385.578957 176.006306 397.320497C185.053725 408.519191 200.735919 415.797337 215.211789 415.797337C261.655207 415.797337 285.580604 353.209302 285.580604 312.797497C285.580604 302.744809 284.575336 284.851025 271.707895 271.983584C262.660476 263.137219 247.581444 256.301391 233.708735 256.301391z" />
    <glyph glyph-name="s-mail"
      unicode="&#xE02B;"
      horiz-adv-x="560" d=" M40 280C40 412.54834 147.45166 520 280 520C412.54834 520 520 412.54834 520 280C520 147.45166 412.54834 40 280 40C147.45166 40 40 147.45166 40 280zM190 359C180.34 359 172.325 353.043285 170.43 345.071734L280 248.877591L389.57 345.071734C387.6725 353.043285 379.6600000000001 359 370 359L190 359L190 359L190 359L190 359zM170 333.035395L170 225.028783L231.5175 279.036478L170 333.044174L170 333.035395L170 333.035395L170 333.035395zM390 333.044174L329.375 279.820026L390 226.595877L390 333.066122L390 333.044174L390 333.044174L390 333.044174zM322.3 273.630661L283.54 239.602323C281.587358 237.88879 278.422392 237.88879 276.46975 239.602323L238.59475 272.853698L170.86975 213.396288C173.36975 206.203895 180.96975 201 189.99475 201L369.99475 201C379.53725 201 387.46225 206.811858 389.48225 214.636356L322.2897500000001 273.621881L322.3 273.630661L322.3 273.630661L322.3 273.630661z" />
    <glyph glyph-name="s-twitter"
      unicode="&#xE02C;"
      horiz-adv-x="560" d=" M40 280C40 412.5483470000001 147.451653 520 280 520C412.548347 520 520 412.5483470000001 520 280C520 147.451653 412.548347 40 280 40C147.451653 40 40 147.451653 40 280zM309.337633 373.73536C288.383534 366.10874 275.140543 346.449009 276.6492380000001 324.924994L277.152137 316.620452L268.770497 317.637335C238.261328 321.535385 211.607714 334.754859 188.977286 356.956796L177.913522 367.973025L175.063764 359.837964C169.028984 341.703557 172.884538 322.5522680000001 185.456998 309.671754C192.16231 302.553576 190.653614 301.536693 179.086952 305.773704C175.063764 307.129548 171.543476 308.14643 171.20821 307.637989C170.034781 306.4516260000001 174.057968 291.028906 177.242991 284.92761C181.601443 276.453589 190.485982 268.149047 200.208684 263.234114L208.422691 259.336064L198.699989 259.166584C189.312552 259.166584 188.977286 258.997103 189.983083 255.438014C193.335739 244.421786 206.57873 232.727636 221.330416 227.643222L231.723649 224.084133L222.671478 218.660759C209.260855 210.864659 193.503372 206.458168 177.745889 206.119207C170.202413 205.949726 164 205.271805 164 204.763363C164 203.068559 184.451201 193.577654 196.353129 189.849085C232.058915 178.832856 274.470012 183.578309 306.320243 202.390637C328.95067 215.779592 351.581098 242.388021 362.141964 268.149047C367.841479 281.876963 373.540994 306.960067 373.540994 318.993178C373.540994 326.789279 374.0438920000001 327.806161 383.431329 337.127585C388.963211 342.5509590000001 394.159828 348.482775 395.165624 350.1775790000001C396.841952 353.397707 396.67432 353.397707 388.125047 350.51654C373.876259 345.4321270000001 371.864666 346.110048 378.905243 353.736668C384.10186 359.160042 390.304273 368.989908 390.304273 371.871075C390.304273 372.379516 387.789781 371.532114 384.940024 370.00679C381.922634 368.311986 375.217322 365.769779 370.188338 364.244455L361.136167 361.363288L352.92216 366.956142C348.396075 370.00679 342.026028 373.396399 338.6733730000001 374.413282C330.1241 376.7860080000001 317.048742 376.447047 309.337633 373.73536L309.337633 373.73536z" />
    <glyph glyph-name="s-whatsapp"
      unicode="&#xE02D;"
      horiz-adv-x="560" d=" M87.4583728 136.700327C57.6464411 176.691371 40 226.284912 40 280C40 412.54834 147.45166 520 280 520C412.54834 520 520 412.54834 520 280C520 147.45166 412.54834 40 280 40C228.14619 40 180.133246 56.444697 140.891871 84.403387L63.9627357 61.57123L87.4583728 136.700327L87.4583728 136.700327zM219.877347 241.854799C259.120889 194.450318 354.756412 149.021023 377.840849 159.226154C400.925285 169.431285 405.8719500000001 191.487537 404.882617 201.692669C403.893284 211.8978 351.458636 243.17159 338.267529 249.097151C325.076422 255.022711 309.90665 235.929239 302.651541 227.699294C295.0666550000001 219.798547 266.04622 243.829986 253.514669 256.010304C253.514669 256.010304 220.536903 292.880457 228.121789 300.781204C235.706675 308.6819510000001 254.504002 324.483444 247.908449 337.322158C241.312895 350.1608720000001 208.005351 401.515727 197.452466 402.174123C187.229358 402.832518 165.464033 396.9069580000001 156.230258 373.533915C146.996483 350.1608720000001 191.18669 260.948271 240.323562 223.748921L219.877347 241.854799L219.877347 241.854799z" />
    <glyph glyph-name="s-youtube"
      unicode="&#xE02E;"
      horiz-adv-x="560" d=" M40 280C40 412.5483470000001 147.451653 520 280 520C412.548347 520 520 412.5483470000001 520 280C520 147.451653 412.548347 40 280 40C147.451653 40 40 147.451653 40 280zM252.90218 378.294016L252.903318 337.753578C252.903318 331.1062970000001 254.985972 325.812406 259.089858 321.878844C263.225592 317.963203 268.738768 315.988328 275.599242 315.988328C282.757156 315.988328 288.348815 317.899609 292.45327 321.704828C296.509953 325.5187190000001 298.545972 330.7576870000001 298.545972 337.444859L298.545972 377.855797C298.545972 383.819156 296.46218 388.699109 292.327583 392.4806250000001C288.161137 396.270812 282.819147 398.1647500000001 276.319242 398.1647500000001C269.1920380000001 398.1647500000001 263.491185 396.3662030000001 259.261611 392.775469C255.016682 389.192828 252.90218 384.368375 252.90218 378.294016zM269.082844 336.274734L269.082844 378.891797C269.082844 380.603625 269.693649 381.980141 270.883981 383.039266C272.090237 384.089719 273.6405690000001 384.607719 275.566825 384.607719C277.635261 384.607719 279.31128 384.089719 280.5954500000001 383.039266C281.879621 381.980141 282.522844 380.6024690000001 282.522844 378.891797L282.522844 336.275312C282.522844 334.188859 281.896114 332.541781 280.642085 331.331187C279.37327 330.144297 277.69782 329.540156 275.566825 329.540156C273.484171 329.540156 271.8860660000001 330.121172 270.773649 331.299391C269.6618010000001 332.485703 269.082275 334.1333590000001 269.082844 336.274734zM210.094028 424L192.269194 424L213.335735 359.975547L213.335735 317.9637810000001L231.036588 317.9637810000001L231.036588 361.957938L251.633365 424L233.63564 424L222.703697 381.614188L221.59128 381.614188M356.156209 317.963203L356.156209 396.191031L340.428815 396.191031L340.428815 336.816437C338.972322 335.097672 337.342938 333.6951410000001 335.589005 332.596703C333.8197160000001 331.505781 332.34673 330.949047 331.203602 330.949047C329.730616 330.949047 328.650047 331.369922 328.007962 332.198953C327.350521 333.026828 326.989384 334.364031 326.989384 336.2192340000001L326.989384 396.191031L311.294976 396.191031L311.294976 330.812609C311.294976 326.146562 312.219147 322.659891 314.0521330000001 320.327156C315.899336 318.002516 318.609858 316.831812 322.274123 316.831812C325.219526 316.831812 328.258768 317.660844 331.39128 319.3246870000001C334.5408530000001 320.9798590000001 337.563033 323.42475 340.429953 326.600969L340.429953 317.963203L356.156209 317.963203zM279.953934 288.172422C279.953934 288.181094 183.325498 288.028469 171.828815 276.5735C160.331564 265.101188 160.300284 208.464016 160.300284 208.137953C160.300284 207.708406 160.332133 151.167203 171.828815 139.694313C183.32436 128.246859 279.953934 128 279.953934 128C279.953934 128 376.597156 128.246859 388.062559 139.694891C399.607014 151.207094 399.700284 208.137953 399.700284 208.137953C399.700284 208.465172 399.575735 265.101188 388.062559 276.5735C376.597156 288.028469 279.953934 288.181094 279.953934 288.172422zM215.325118 243.207594L215.325118 160.928844L199.582938 160.928844L199.582938 243.207594L183.308436 243.207594L183.308436 257.187812L231.599052 257.187812L231.599621 243.207594L215.325118 243.207594zM263.66237 160.928266L263.66237 168.738156C261.062749 165.840594 258.399431 163.651234 255.596209 162.153891C252.807773 160.62475 250.113175 159.893422 247.481706 159.893422C244.238863 159.893422 241.842275 160.928266 240.182749 163.060969C238.569289 165.187891 237.738957 168.331156 237.738957 172.575172L237.738957 231.950922L251.695924 231.950922L251.695924 177.479406C251.695924 175.791859 251.993365 174.581844 252.558104 173.83375C253.16891 173.069469 254.12436 172.702937 255.424455 172.702937C256.443033 172.702937 257.758483 173.20475 259.324739 174.199703C260.906919 175.203328 262.332133 176.461328 263.662938 177.997406L263.662938 231.949766L277.619336 231.949766L277.618768 160.928266L263.66237 160.928266zM324.985782 164.040891C322.80872 161.350875 319.629573 160.029859 315.494408 160.029859C312.753175 160.029859 310.324739 160.529938 308.194313 161.565359C306.065024 162.599625 304.043223 164.192359 302.227299 166.373047L302.227299 160.928266L288.115071 160.928266L288.115071 257.187813L302.227299 257.187813L302.227299 226.195109C304.122275 228.345156 306.111659 230.009 308.210806 231.122469C310.340095 232.252703 312.487583 232.810594 314.647583 232.810594C319.080758 232.810594 322.44872 231.297641 324.766825 228.287922C327.1162090000001 225.2550780000001 328.275829 220.820859 328.275829 215.008969L328.275829 175.601078C328.274692 170.578328 327.177062 166.724547 324.985782 164.040891zM349.983886 194.739328L349.983886 181.356891C349.983886 177.614688 350.439431 175.027578 351.34654 173.570703C352.286066 172.130016 353.852322 171.420078 356.077156 171.420078C358.394123 171.420078 360.008152 172.034047 360.932322 173.259672C361.841137 174.485875 362.326256 177.176469 362.326256 181.356891L362.326256 184.596703L376.689858 184.596703L376.689858 180.949891C376.689858 173.664937 374.9501420000001 168.180266 371.426919 164.478531C367.950332 160.816109 362.717536 158.993859 355.7637910000001 158.993859C349.513555 158.993859 344.579336 160.928844 340.992417 164.845641C337.40436 168.737578 335.587299 174.104891 335.587299 180.950469L335.587299 212.843313C335.587299 218.981266 337.576682 224.028875 341.524171 227.898266C345.470521 231.775172 350.545782 233.709578 356.811943 233.709578C363.202085 233.709578 368.120948 231.911031 371.5509 228.320297C374.980853 224.738234 376.689289 219.579047 376.689289 212.843313L376.689289 194.739906L349.983886 194.739328zM308.068626 221.537734C307.06654 221.537734 306.080379 221.322672 305.108436 220.845141C304.13763 220.382641 303.18218 219.65825 302.227299 218.678906L302.227299 174.430953C303.354502 173.285109 304.467488 172.417344 305.547488 171.923047C306.613839 171.422391 307.725687 171.150672 308.91545 171.150672C310.622749 171.150672 311.876777 171.652484 312.675261 172.671719C313.472607 173.66725 313.895735 175.275594 313.895735 177.559766L313.895735 214.229656C313.895735 216.626562 313.409479 218.449391 312.423886 219.690625C311.405308 220.916828 309.947678 221.537734 308.068626 221.537734zM356.218768 221.282781C353.995071 221.282781 352.397536 220.654359 351.425592 219.324094C350.454787 218.083438 349.985024 215.933391 349.985024 212.962984L349.985024 205.790188L362.327962 205.790188L362.327962 212.962984C362.327962 215.932813 361.826919 218.081703 360.854976 219.324094C359.91545 220.654359 358.333839 221.282781 356.218768 221.282781z" />
    <glyph glyph-name="sales-trophy"
      unicode="&#xE02F;"
      horiz-adv-x="560" d=" M520 345.333897C520 319.558993 499.335827 298.664869 473.844589 298.664869C473.177478 298.664869 472.537485 298.736161 471.881222 298.769066L471.881222 298.867778C471.224958 298.785518 470.574118 298.664869 469.890736 298.664869C461.153207 298.664869 454.069898 305.827002 454.069898 314.661762C454.069898 323.4965210000001 461.153207 330.658654 469.890736 330.658654C470.720557 330.658654 471.512412 330.538005 472.309691 330.411873L472.315115 330.817691C472.82494 330.76285 473.323917 330.658654 473.844589 330.658654C481.855346 330.658654 488.3529 337.223028 488.3529 345.328413C488.3529 345.821975 488.255274 346.288117 488.211885 346.770711L488.3529 346.770711L488.3529 394.657191L446.156767 394.657191L446.156767 346.66103C446.156767 346.090692 446.04287 345.558742 445.994057 345.0103400000001C442.587993 260.808665 377.905334 192.609366 295.828974 184.772699L295.828974 117.324711L345.932814 117.324711C354.670343 117.324711 361.759076 110.157094 361.759076 101.322335C361.759076 92.487575 354.670343 85.325442 345.932814 85.325442L214.067186 85.325442C205.329657 85.325442 198.246347 92.487575 198.246347 101.322335C198.246347 110.157094 205.329657 117.324711 214.067186 117.324711L264.17645 117.324711L264.17645 184.778183C179.83842 192.839695 113.848657 264.614576 113.848657 351.996984L113.848657 394.6626760000001L71.6525237 394.6626760000001L71.6525237 346.7761950000001L71.7989627 346.7761950000001C71.7501497 346.293601 71.6525237 345.827459 71.6525237 345.333897C71.6525237 337.228512 78.1446537 330.664138 86.1608343 330.664138C86.6869301 330.664138 87.1804838 330.768334 87.6903086 330.823175L87.6957323 330.4173570000001C88.4875877 330.543489 89.2848668 330.664138 90.1092643 330.664138C98.8522164 330.664138 105.935526 323.502005 105.935526 314.667246C105.935526 305.832486 98.8522164 298.670353 90.1092643 298.670353C89.4258822 298.670353 88.7750421 298.785518 88.1187783 298.873262L88.1187783 298.77455C87.4625145 298.747129 86.8170981 298.670353 86.1554107 298.670353C60.6641733 298.670353 40 319.564477 40 345.339381C40 345.635518 40.0216947 345.931655 40.0433893 346.227793C40.0433893 346.370377 40.0054237 346.512962 40.0054237 346.666514L40.0054237 410.665052C40.0054237 419.505296 47.0887335 426.667428 55.8262619 426.667428L113.848657 426.667428L113.848657 504.0031076C113.848657 512.8378672 120.931967 520 129.674919 520L430.330505 520C439.068033 520 446.156767 512.8378672 446.156767 504.0031076L446.156767 426.667428L504.173738 426.667428C512.911267 426.667428 520 419.505296 520 410.665052L520 346.666514C520 346.512962 519.956611 346.370377 519.956611 346.222309C519.972882 345.926171 520 345.630034 520 345.333897L520 345.333897zM414.509667 488.0007312L145.501181 488.0007312L145.501181 351.996984C145.501181 276.887817 205.720161 215.99872 280.002712 215.99872C354.285262 215.99872 414.509667 276.887817 414.509667 351.996984L414.509667 488.0007312L414.509667 488.0007312zM166.599247 71.999269L393.406176 71.999269C402.143705 71.999269 409.232438 64.837136 409.232438 55.996892C409.232438 47.162133 402.143705 40 393.406176 40L166.599247 40C157.861719 40 150.772986 47.162133 150.772986 55.996892C150.772986 64.837136 157.856295 71.999269 166.599247 71.999269L166.599247 71.999269z" />
    <glyph glyph-name="search"
      unicode="&#xE030;"
      horiz-adv-x="560" d=" M202.646815 243.508672C187.409881 269.052549 178.655964 298.911915 178.655964 330.815868C178.655964 425.075421 255.068429 501.4878865 349.327982 501.4878865C443.587535 501.4878865 520 425.075421 520 330.815868C520 236.556316 443.587535 160.14385 349.327982 160.14385C308.585312 160.14385 271.177025 174.420044 241.832601 198.242953L89.5845136 65.89571C77.1106505 55.052346 58.2081377 56.374317 47.3592428 68.854543C36.5127329 81.332026 37.8379378 100.2425 50.3058263 111.080671M349.592117 212.10225C415.7234220000001 212.10225 469.333438 265.712265 469.333438 331.843571C469.333438 397.974876 415.7234220000001 451.584891 349.592117 451.584891C283.460812 451.584891 229.850796 397.974876 229.850796 331.843571C229.850796 265.712265 283.460812 212.10225 349.592117 212.10225L349.592117 212.10225z" />
    <glyph glyph-name="star-empty"
      unicode="&#xE031;"
      horiz-adv-x="560" d=" M518.223055 337.662917C514.067922 349.347591 503.402581 357.902703 490.562171 359.759967L365.668182 377.8646310000001L311.381448 487.7502913C305.666266 499.2887244 293.440875 506.6739065 280.000446 506.6739065C266.560017 506.6739065 254.334626 499.2887244 248.619444 487.7502913L194.33271 377.8646310000001L69.4237204 359.759967C56.5983107 357.902703 45.9329701 349.347591 41.7928379 337.662917C37.6677061 325.948994 40.7878058 313.050518 49.8480951 304.246796L141.381019 215.156639L120.155341 91.568175C117.995272 79.123047 123.530449 66.634045 134.375795 59.351232C140.330985 55.358847 147.336209 53.326094 154.341433 53.326094C160.101617 53.326094 165.876801 54.700761 171.111968 57.435472L280.000446 114.586545L388.903924 57.435472C394.139092 54.700761 399.914276 53.326094 405.65946 53.326094C412.6646830000001 53.326094 419.669907 55.358847 425.640098 59.351232C436.485444 66.634045 441.99062 79.123047 439.845551 91.568175L418.604873 215.156639L510.167797 304.246796C519.213086 313.0651420000001 522.318185 325.963619 518.223055 337.662917L518.223055 337.662917zM393.824081 238.1311360000001C386.143836 230.6728330000001 382.663725 220.158089 384.418781 209.848082L405.65946 86.259619L296.755981 143.381443C291.535814 146.130778 285.77563 147.490822 279.985446 147.490822C274.225262 147.490822 268.450077 146.116154 263.22991 143.381443L154.326432 86.259619L175.567111 209.848082C177.337167 220.158089 173.857056 230.6728330000001 166.176811 238.1311360000001L74.6438871 327.221293L199.537876 345.355206C210.953241 347.0077320000001 220.778555 353.968814 225.683711 363.898594L280.000446 473.7550056L334.30218 363.88397C339.222338 353.9541900000001 349.032651 347.0077320000001 360.433015 345.3405820000001L485.357005 327.2066690000001L393.824081 238.1311360000001L393.824081 238.1311360000001z" />
    <glyph glyph-name="star-half"
      unicode="&#xE032;"
      horiz-adv-x="560" d=" M279.734103 125.964942C279.734103 125.964942 273.128755 124.908887 270.2368410000001 122.95053L153.638636 43.866578C139.83039 34.489386 122.205578 47.955212 126.772591 64.376409L163.587435 197.234781C165.517158 204.212123 163.308697 211.744986 157.926911 216.455803L46.3674299 313.671956C33.8671075 324.5823860000001 40.964203 345.736621 57.3025318 346.2477L185.500521 350.247451C192.383203 350.469659 198.515437 354.75828 201.281374 361.291206L263.675779 508.9708747C266.662159 516.0222417 279.1545290000001 520 279.1545290000001 520L279.734103 125.964942z" />
    </font>
</defs>
</svg>
