<?xml version="1.0" standalone="no"?>
<!DOCTYPE svg PUBLIC "-//W3C//DTD SVG 20010904//EN"
 "http://www.w3.org/TR/2001/REC-SVG-20010904/DTD/svg10.dtd">
<svg version="1.0" xmlns="http://www.w3.org/2000/svg"
 width="120.000000pt" height="120.000000pt" viewBox="0 0 120.000000 120.000000"
 preserveAspectRatio="xMidYMid meet">
<metadata>
Created by potrace 1.11, written by Peter Selinger 2001-2013
</metadata>
<g transform="translate(0.000000,120.000000) scale(0.100000,-0.100000)"
fill="#000000" stroke="none">
<path d="M81 1182 c-19 -9 -44 -30 -55 -45 -21 -28 -21 -38 -21 -537 0 -499 0
-509 21 -537 47 -64 39 -63 574 -63 535 0 527 -1 574 63 21 28 21 38 21 537 0
499 0 509 -21 537 -47 64 -39 63 -574 63 -442 0 -488 -2 -519 -18z m219 -252
c0 -33 3 -40 20 -40 17 0 20 -7 20 -40 0 -33 -3 -40 -20 -40 -19 0 -20 -7 -20
-100 l0 -100 -40 0 -40 0 0 180 0 180 40 0 40 0 0 -40z m258 -46 c12 -8 22
-10 22 -5 0 6 18 11 40 11 l40 0 0 -140 0 -140 -39 0 c-23 0 -41 5 -44 13 -3
9 -7 9 -18 1 -8 -7 -23 -14 -34 -17 -15 -4 -13 -5 8 -6 l27 -1 0 -180 0 -180
-40 0 -40 0 0 180 0 180 -40 16 c-65 26 -101 106 -81 181 10 38 50 85 81 96
31 11 96 6 118 -9z m325 -1 c15 -13 21 -15 24 -5 3 7 22 12 44 12 l39 0 -2
-197 -3 -198 -42 -3 -43 -3 0 69 0 70 -41 -14 c-144 -50 -241 136 -129 248 33
33 43 38 86 38 31 0 54 -6 67 -17z m-583 -323 c0 -33 3 -40 20 -40 17 0 20 -7
20 -40 0 -33 -3 -40 -20 -40 -19 0 -20 -7 -20 -100 l0 -100 -45 0 -45 0 0 173
c0 96 3 177 7 180 3 4 24 7 45 7 38 0 38 0 38 -40z m150 0 l0 -40 -40 0 -40 0
0 40 0 40 40 0 40 0 0 -40z m348 -50 c37 -22 75 -96 70 -133 -3 -20 -10 -22
-65 -25 l-63 -3 0 31 c0 25 4 30 25 30 31 0 32 14 3 34 -31 22 -58 20 -85 -6
-30 -28 -31 -83 -1 -115 17 -18 32 -23 70 -23 l48 0 0 -35 0 -35 -51 0 c-69 0
-123 31 -149 85 -26 53 -25 81 3 135 38 75 126 102 195 60z m-348 -140 l0
-130 -40 0 -40 0 0 130 0 130 40 0 40 0 0 -130z m431 -86 c17 -21 0 -49 -32
-49 -24 0 -36 23 -25 51 7 19 40 18 57 -2z"/>
<path d="M456 801 c-43 -48 12 -136 71 -115 51 17 65 81 27 119 -22 21 -77 19
-98 -4z"/>
<path d="M788 803 c-24 -28 -27 -47 -13 -80 20 -47 88 -52 117 -9 14 21 8 73
-10 89 -24 22 -75 22 -94 0z"/>
</g>
</svg>
