<?xml version="1.0" encoding="UTF-8" standalone="no"?>
<svg width="44px" height="50px" viewBox="0 0 44 50" version="1.1" xmlns="http://www.w3.org/2000/svg" xmlns:xlink="http://www.w3.org/1999/xlink">
    <!-- Generator: Sketch 3.7.2 (28276) - http://www.bohemiancoding.com/sketch -->
    <title>ic-trash</title>
    <desc>Created with Sketch.</desc>
    <defs></defs>
    <g id="Page-1" stroke="none" stroke-width="1" fill="none" fill-rule="evenodd">
        <g id="ic-trash" fill="#000000">
            <g>
                <g id="trash">
                    <path d="M32.5156344,50 L11.3368246,50 C9.6051584,50 7.95828555,48.0523667 7.65926721,45.6485488 L3.79569344,13.0434783 L40.0567657,13.0434783 L36.1931918,45.6485488 C35.8942455,48.0517889 34.2473701,50 32.5156344,50 L32.5156344,50 L32.5156344,50 L32.5156344,50 Z M13.1551348,44.0610327 C13.2287514,44.6568676 13.7744679,45.0805799 14.3740267,45.0074206 C14.9735857,44.9342613 15.3999461,44.3919342 15.3263295,43.7960993 L12.2605539,18.9824456 C12.1869373,18.3866107 11.6412208,17.9628984 11.0416619,18.0360577 C10.4421031,18.109217 10.0157426,18.651544 10.0893591,19.2473789 L13.1551348,44.0610327 L13.1551348,44.0610327 L13.1551348,44.0610327 L13.1551348,44.0610327 Z M28.5261295,43.7960993 C28.4525129,44.3919342 28.8788734,44.9342613 29.4784323,45.0074206 C30.0779911,45.0805799 30.6237076,44.6568676 30.6973242,44.0610327 L33.7630999,19.2473789 C33.8367164,18.651544 33.4103559,18.109217 32.8107971,18.0360577 C32.2112382,17.9628984 31.6655217,18.3866107 31.5919051,18.9824456 L28.5261295,43.7960993 L28.5261295,43.7960993 L28.5261295,43.7960993 L28.5261295,43.7960993 Z M20.8324795,44.0217391 C20.8324795,44.6220487 21.322168,45.1086957 21.9262295,45.1086957 C22.530291,45.1086957 23.0199795,44.6220487 23.0199795,44.0217391 L23.0199795,19.0217391 C23.0199795,18.4214296 22.530291,17.9347826 21.9262295,17.9347826 C21.322168,17.9347826 20.8324795,18.4214296 20.8324795,19.0217391 L20.8324795,44.0217391 L20.8324795,44.0217391 L20.8324795,44.0217391 L20.8324795,44.0217391 Z" id="trash-can"></path>
                    <path d="M11.1254483,6.52173911 L11.1254483,4.34288561 C11.1254483,1.9416212 13.0831312,0 15.5034462,0 L28.3490128,0 C30.7653492,0 32.7270108,1.94169449 32.7270108,4.34288561 L32.7270108,6.52173911 L41.6166918,6.52173911 C42.8231787,6.52173911 43.8012295,7.49747613 43.8012295,8.69565215 C43.8012295,9.89627121 42.8261078,10.8695653 41.6166918,10.8695653 L2.23576721,10.8695653 C1.02928036,10.8695653 0.0512295082,9.89382818 0.0512295082,8.69565215 C0.0512295082,7.4950332 1.0263512,6.52173911 2.23576721,6.52173911 M28.3521103,6.52173911 C28.35219,5.76725523 28.3519495,4.34782609 28.3490128,4.34782609 C28.3490128,4.34782609 15.5004483,4.34481555 15.5004483,4.34288561 L15.5004483,6.52173911" id="trash-top"></path>
                </g>
                <g id="trash-garbage" transform="translate(13.000000, 14.000000)">
                    <path d="M4.33514547,0.000888848906 C3.9156461,0.101995412 3.47786606,0.339762494 3.22241472,0.617861096 C2.96708286,0.895959698 2.78332039,1.26216545 2.69968337,1.71981153 C1.81014398,1.33127345 0.755600693,1.32038505 0,1.58781746 C0.854411853,2.32333993 1.89139136,3.80560659 1.85064819,5.70096578 C1.80990501,7.59643607 0.793356831,8.77449419 0.0743174622,9.57345825 C0.772328096,10.0644362 2.03010933,10.1865418 2.95382042,9.64323289 C3.9671426,10.2233179 5.22874724,10.0267712 5.96475297,9.5471261 C5.24069538,8.74960642 4.25449549,7.51032883 4.1810144,5.70896542 C4.10753331,3.907602 5.00256885,2.37978184 6,1.58692862 C5.3146544,1.36549413 4.25748253,1.38216005 3.3378338,1.75814314 C3.40940319,1.43426882 3.52123783,1.21738968 3.70750941,1.01284333 C3.89378099,0.808296974 4.20753928,0.644859881 4.58127726,0.506421664 C4.56132385,0.26443255 4.46549973,0.0936624535 4.33478702,0" id="trash-garbage-2"></path>
                    <circle id="trash-garbage-1" cx="4" cy="4" r="4"></circle>
                </g>
            </g>
        </g>
    </g>
</svg>